<svg xmlns="http://www.w3.org/2000/svg" xmlns:xlink="http://www.w3.org/1999/xlink" viewBox="0 0 268.72 243.03"><defs><style>.cls-1{mix-blend-mode:multiply;}.cls-2{fill:#fff;}.cls-3{mask:url(#mask);}</style><mask id="mask" x="-33.42" y="-24.92" width="346.31" height="291.89" maskUnits="userSpaceOnUse"><g class="cls-1"><rect class="cls-2" x="-16.26" y="-2.33" width="311.99" height="246.71" transform="translate(-17 23.01) rotate(-8.87)"/><path d="M171,226.32l-1.3-1.8-.86,1.09c-.24-.09-.47-.11-.58-.23s-.28-.56-.52-.71c-1.38-.85-1.38-.21-1.7.6-.07.16,0,.35,0,.72-4,2-3.7,1.5-3.66,4.25-1.33.52-3-.35-3.59,1.56-.56-.42-.45,0-.44-2.78l1.56.61c.53-1.14.68-.84-.87-1.19-.08-.87-.16-1.77-.25-2.77,1.88-.15,3.56,1.28,5.59.12l-.77-1.11c3.33-2.48,3.33-2.48,4.75-2.51-.11.64,0,.36-.48,1.13l2.44-.38,1.16,1.44a5.75,5.75,0,0,0,1.55-.46c1.74-1.14,1.28-.78,3.52-.06,1.54-2.46,1-2.08,2.56-1.93-.88,4.12-4.19,1.57-5.57,3.65A2.26,2.26,0,0,1,171,226.32Z"/><path d="M83,231.78c2.41-1.28,4-2.6,5.74-1.34s1.55,2.2-.05,3.53l-2.78-.09c.83,2.55.85,2.14.41,2.71-1.26,1.62-1.26,1.62.61,2.83,1.16-1.18,1-2.7,1.5-2.62,4.24.8,3.63.81,3.75,1.16-.41,1-3,.67-1.92,2.78-10.25-1.14-5.83.42-6.21-8.34C82.76,231.8,82.9,231.92,83,231.78Z"/><path d="M131.41,237.39l.39,1.83c3.48-.1,4.34-.31,2.39.74l2.64,1.71-.78.64c1.47,4.09,1.35,3.18.5,3.89.06,0,.07.11-1.15-2.37-.85.3-.91,1.46-1.9,1a1.41,1.41,0,0,1-.72-1.86l1.68-.45-1.66-1.06c-2.11,1.33-2.15,3.21-2.7,5.2l-1.39-1,.84-1.08c-.43-2.92-.59-1.65.25-5.15-.75-.36-1.72.21-1.82-.83.26-.1.58-.34.85-.32.72.07,1.21-.09,1.47-.7C130.62,236.84,131.69,237.59,131.41,237.39Z"/><path d="M157.79,240.34c-.12-1.45.71-1.07-4.06-2.67-.42.73-.44,2.05-2.22,2.25.16-.8.31-1.59.51-2.61l2.35-.9c-.1-1.95-.64-1.39,2.42-.79-.14-.65-.24-1.11-.32-1.51,1.16-.85,3.28,1.44,2.82,2s-1.33.55-1.06,1.36,1.08.68,1.81.73a13.19,13.19,0,0,1,1.55.26C161.74,239,162.2,238.37,157.79,240.34Z"/><path d="M31.42,187l1.66-1.35c-1.58,0-2.63-.24-2.88-1.63l2.33-1.2c.35,1.2.43,1.73.74,1.71a2.17,2.17,0,0,1,1.84.77c.39.39,1.76.21,1.93.57.66,1.36,1.13,1.14,1.44,1.49,0,2.25-2.47.62-3.07,2.2C35.45,189.47,35.69,189.66,31.42,187Zm4.47-.46c-.75-.15-.52-.17-.83.28C35.78,187,35.6,187.08,35.89,186.5Z"/><path d="M12.63,136.14l1.85,1.76,1.78-.57c-.15.68-.26,1.18-.38,1.67l2.61,1.84c-.47.6-1,1-1.84.57-3.55-1.78-3-1.32-6.15-1.17.29-.56.52-1,.82-1.62C8.41,138.46,8.2,138.73,12.63,136.14Z"/><path d="M71.2,195.45l1.55-1.17c0,.74,0,1.16,0,1.67.93,0,2.11-.08,2.06,1s-1.08,1.3-1.9,1.36c1.14,1.18,1.12.51.56,2.59l-2.7.62c.09-1.08-.41-2,.53-3C71.84,197.88,71.29,196.63,71.2,195.45Z"/><path d="M82.93,231.88c-.53.13-1.18.67-1.46-.17-.19-.58-.64-.72-1.22-.57s-1.15.44-.88,1.15c.06.16-.14.41-.29.79-2.26-1.22-1-.86-2.18.46a6.75,6.75,0,0,1-1.14.84c-1.33-1.94,2.29-2.59,2.56-4.28,0-.26,1-.51,1.57-.65a13.24,13.24,0,0,1,1.42-.07c1.71-.22,1.83-.13,1.75,1.36C83,231.94,83.06,231.72,82.93,231.88Z"/><path d="M44.7,186.71c-1.6.07-1.6.07-1.86-1.74l-1.23.56c1,1.43,1,1.16.67,1.56-3.44-1.1-2.45-.66-3.43-2L40,183.26C43.49,183.35,43.49,183.35,44.7,186.71Z"/><path d="M41.49,192.15c1.16-1.21,1.16-1.21,2.37-1.22.32-.67.64-1.31,1.08-2.21,1,2.12-.33,3.74-.69,5.41-.21,1-1.46.76-2.46.8l1.78-2.29a2,2,0,0,0-2.64.8l-2.74-.6C38.74,191.58,38.74,191.58,41.49,192.15Z"/><path d="M77.69,150.83c.3,1.89.15,1.7.56,1.22L80.5,154c-1.69.88.56.83.38,1.36a2.19,2.19,0,0,1-3.55-1l-2.42-.2C76,153.11,75.79,151.6,77.69,150.83Z"/><path d="M174.62,221.11c-1.16.26-2.14.59-3.28-.2a47.6,47.6,0,0,0-5.22-2.74l2.36-1.14C171,218.07,172.08,220.34,174.62,221.11Z"/><path d="M39.71,200.9l1,.68c-1.22.8-3.15.67-3.08,2.37l-2.28.26a9,9,0,0,1-1-1.3c1-.84,0-2.4,1.76-3,0,.51.07,1,.13,1.69C36.22,201.57,40.25,201.12,39.71,200.9Z"/><path d="M97.31,168.51c-1.56.11-1.56.11-3.52,1.89-1.33-.48-.52-1.45-.62-2.31l1.76-.6c-.62-.55.09-.49-2.67-.28.1-1.77.22-1.86,1.71-1.33C94.62,166.1,96.67,165.77,97.31,168.51Z"/><path d="M72,241.14c-.7-1.86-1.36-3.65-2-5.43,1.4-.71,1.19.58,1.85.88.89.2,1.83-.69,2.28.18.21.4-.19,1.06-.34,1.6-.24.87-1.17,1.52-1.17,2.48C72.64,240.94,72.21,241.05,72,241.14Z"/><path d="M96,229.31c-1.37-.81-1-1.62-.69-2.4l-1.29-1c.26-.93.8-1.78-.45-2.49-.34-.2,0-1.22,0-2.27,2,1.49,1.75,3.42,2.52,4.95C100.93,227.6,95.78,225.72,96,229.31Z"/><path d="M88.7,163.11c3-1.78,3.29-1.8,2-3-.19-.17-.11-.56-.18-1,1.74.68,4.1.53,3.54,3.15-1.69.31-3.36,1.06-5.14,1.44Z"/><path d="M125.5,248.1a4,4,0,0,0,.64-.48l.26.34,3.61-.56a.72.72,0,0,0-.27-.12c-3.28-.35-6.67-1-6.57.94a4.33,4.33,0,0,0,.56.16Z"/><path d="M-7,162.34c5,1.76-.41-.89,1.31-1.83,1.05-.58,2.57.45,3.06.69-1.19.6-1.19.54-.86,2.15.26,1.25-1.3,2.17-2.78.83C-6.67,163.86-6.7,163.26-7,162.34Z"/><path d="M134.53,193.48c1.64,0,.95,1.69,2.28,2.07-1.14.83-2.33,1.65-1.46,3.13-1.55.11-1.17.21-2.72-2.86A9.19,9.19,0,0,0,134.53,193.48Z"/><path d="M163.17,211.35c-1.25.36,0,.78-4.95-1.67.47-.75.95-1.54,1.32-2.14-.6-.61-1.11-1.14-1.7-1.76,1.54-.35,1.54-.35,3.23,1.56a5,5,0,0,0-1.06,1c-.31,1.32,1.59.33,1.66,1.41C161.71,210.31,162.56,210.75,163.17,211.35Z"/><path d="M87.93,180.76l1.8,1.22c.27-.65.5-1.19.73-1.72.82.22.62-.21.9,2.76-1.62-.35-2,1.9-3.73,1C87,183.05,87.23,182,87.93,180.76Z"/><path d="M38.38,200.25c.08-.39.19-.92.37-1.83.69-.68,2.72-1.08,2.29-3,1.26,0,1.32.83,1.57,1.31a11,11,0,0,1-.82,1.47c-.35.46-.94.82-1.21,1.31s.16,1.21-.87,1.35C39.77,200.91,40,201.05,38.38,200.25Z"/><path d="M146.38,197.24l1.53-.05c.6,1.41-1.1,1.47-1.52,2.3l-3-1.76c1.89-1.92,1-1.62,4.1-1.51C147.75,197.17,146.74,196.92,146.38,197.24Z"/><path d="M113.49,215.71a19.11,19.11,0,0,1-2.47-.59l1.13-2.07c1.37.68,2.47,1.39,3.93.83C115.82,213.71,117.59,216.11,113.49,215.71Z"/><path d="M80.6,141.35c.45,1.18-.57,2.31,1.43,2.72-.86.32-1.19.55-1.47.52a29.77,29.77,0,0,1-4.22-.78,5.17,5.17,0,0,0,2.55-1.55A7.23,7.23,0,0,1,80.6,141.35Z"/><path d="M139.55,162.82c-1.57,1.11-1.84,1-2.38-.64-.3-.91-1.39-2.1-.37-2.59.28-.14,1-.08,1.09.1C138.5,160.65,140,161.19,139.55,162.82Z"/><path d="M147.23,233.24c2.41-.66,3.24.75,4.36,2l-1.62.09c.28.82.52,1.48.75,2.13C149.31,237.3,149.83,237.46,147.23,233.24Z"/><path d="M112.1,210.91c-.68,1.6-.26,1.07-2.19,1.8.57-1.84,1-3.26,1.47-4.77.83.68,2.09.85,1.86,2C114,210.43,114.23,210.22,112.1,210.91Z"/><path d="M130,149l3-.07-1.73,3.63-2.09-.14C130.81,149.76,130.68,150.52,130,149Z"/><path d="M19.1,262.93c1.16-3.1.32-1.93,2.83-2.09a14.31,14.31,0,0,0,1.94-.4c-.68,1.52-.84,2.4-2.22,2.14A9.14,9.14,0,0,0,19.1,262.93Z"/><path d="M41.48,220.12c-.24-.82-.41-1.36-.57-1.9,1.31-2.46,4.45-.21,3,.72C43.17,219.37,42.38,219.68,41.48,220.12Z"/><path d="M83.58,157.28c-.2-.49-.38-.94-.64-1.56l1.56-.31c-.21.77-.81,1.46.52,1.73a9.07,9.07,0,0,1,2.24,1.07c-1.08.58-2.25,1-3.49,0-.31-.25-1-.17-1.46-.24C82.34,157.53,82.08,157.71,83.58,157.28Z"/><path d="M-12.27,131.47c-1.56,2.27-1.23,0-4,1.85l0,.13c1.06.7-.25.86,6.67-1Z"/><path d="M52,205.5c-1.28-1.72-1.17-3.15.25-4.73.26.23.8.65.78.67-1.2,1.16-.12,2,.48,3.08Z"/><path d="M-4.27,118.06c1.77,3,.77,2.35,4.3,3.06v.47c-1.58.5-.43.56-4.13.08C-3.47,120.57-4.88,119.63-4.27,118.06Z"/><path d="M2.14,154.82c-.68,1-1.23,1.84-1.79,2.66.08-1.81-2-2.1-3-3.07C-2.18,154.11-2.84,154.1,2.14,154.82Z"/><path d="M92.21,217.59c-.47.83-1.09.81-1.91.69-1.07-.16-1.55.23-1.34,1.17.16.73,0,1-.92,1-.13-.84-.23,0,.29-3C89.68,217.21,91,216.9,92.21,217.59Z"/><path d="M177.85,188.46l.65-.85c-.25-.08-.6-.1-.67-.24-.63-1.13.52-1.3.64-1.25,1.11.46,2.17,1,3.6,1.68Z"/><path d="M92.11,231.91c0-1.74,2.06-1.13,2.7-2l1.79,1.82a6.22,6.22,0,0,1-.52.49c-1.1-.69-2.3-.14-3.44-.11C92.51,232.1,92.39,232,92.11,231.91Z"/><path d="M95.3,246.48c1.51-1,1.51-1,.74-2.43l1.89.44c.31,1.49.07,2.15-.92,2.62C96.48,247.36,96.38,247.33,95.3,246.48Z"/><path d="M80.28,188.67l3.44-1.94c.21.91.64,1.66-.27,2.34S81.87,189.6,80.28,188.67Z"/><path d="M51.64,227.1l-1.57-3a1,1,0,0,1,1.55-.31C52.89,224.53,53,225.19,51.64,227.1Z"/><path d="M180.91,237.36c-.15.47-.28.84-.41,1.23-2,.21-2.47-1.44-4.26-2C178.32,236.2,179.48,237,180.91,237.36Z"/><path d="M112.71,207.49l-1.51-1.67,2.26-1.93c.9,1.12.9,1.12-.54,2C113.05,206.42,114,207,112.71,207.49Z"/><path d="M52.78,198.39l1.64-2.27a17.63,17.63,0,0,1,1.27,2.23c.16.43-.75.91-1.33.72S53.41,198.66,52.78,198.39Z"/><path d="M63.64,187.65c2.14-1.22,3.51-.26,3.33.87a1.09,1.09,0,0,1-.73.69C65.72,189.19,64.87,188.52,63.64,187.65Z"/><path d="M104.13,178.38l4-2.73c.08.54.33,1.06.18,1.47C107.73,178.68,106.42,178.32,104.13,178.38Z"/><path d="M87.54,154c1.84,0,1.84,0,2.45,2l-3,.07C87.19,155.27,87.37,154.61,87.54,154Z"/><path d="M116.08,213.88c.93-1.42-.42-2.07-1.54-3,1.72-.11,3-.17,4,1.18C115.77,214.05,116,213.84,116.08,213.88Z"/><path d="M91.32,226.9c.08-.79.15-1.46.23-2.24,1.91.18,1.56,1.78,2.59,2.51C92.88,227.84,92.26,227,91.32,226.9Z"/><path d="M150.07,228.84a3.17,3.17,0,0,1-.82.67c-.63.23-2.07-.38-2.19-.88C146.75,227.27,149.66,227.21,150.07,228.84Z"/><path d="M42.13,239.13l-.89,1.09-4.09-.39C37.48,238.32,41.14,239,42.13,239.13Z"/><path d="M104.09,206.33,102.88,208c-1-1.38-.44-1.17-2.64-.74.25-.58.28-1.07.54-1.2A3.23,3.23,0,0,1,104.09,206.33Z"/><path d="M92.1,220.83c.15-1.08.25-1.75.37-2.64l3.13,1.41Z"/><path d="M166.88,227.85l-1,3.32C163.17,231.72,164.07,228.88,166.88,227.85Z"/><path d="M52.55,121.56c.67-.16.46-1.83,2-1a2.55,2.55,0,0,1-2.43,2c-.86.07-1.63.19-1.88-.7C50.9,121.08,51.76,121.85,52.55,121.56Z"/><path d="M-7,137c2.85-2,3.15-2.48,4.23-1.52C-4.3,136.44-7.2,138.58-7,137Z"/><path d="M93.52,143.54a11.15,11.15,0,0,1-1.46,0c-.18,0-.48-.37-.43-.49,1.07-2.79,1.13-2.22,2.06-2.57C93.64,141.5,93.59,142.38,93.52,143.54Z"/><path d="M121.15,207.68a3.74,3.74,0,0,0,2.55-1.31c.43-.65,1-.55,2,0C122.61,208.59,122.15,208.74,121.15,207.68Z"/><path d="M135,204.37c-3.46.88-4.78-.76-4.35-1.43S131.4,202.66,135,204.37Z"/><path d="M24,187.93c2.12-.1,2.25.17,1.25,2.54C23.7,190,24.09,188.88,24,187.93Z"/><path d="M34.12,194.81c.43-1.63.91-1.71,3.53-.54C37.68,195.44,37.16,195.15,34.12,194.81Z"/><path d="M255.69,222.1c-1.79.41-2.48-.28-3-1.54C254.83,219.67,254.11,219.45,255.69,222.1Z"/><path d="M66,205.64l-3.79,1.22c-.14-.11-.31-.19-.31-.26.1-1.33,1.8-1,2.51-1.82C64.74,204.43,65.06,204.62,66,205.64Z"/><path d="M87.35,188.17c-.46-2.93-.74-2.17,1-3.47,1,.55-.53,1.25.25,1.9C89,186.87,88.55,187.93,87.35,188.17Z"/><path d="M126.38,215.15l4-.23a1.12,1.12,0,0,1-1.28,1.26C128.22,216,126.94,216.23,126.38,215.15Z"/><path d="M88.36,37.78c-.6,1.44-1.2,1.75-3.12,1.59C85.7,38.06,86.35,37.73,88.36,37.78Z"/><path d="M4.15,137.56c.12.75.22,1.43.35,2.26C2.29,141.68,2.35,137.78,4.15,137.56Z"/><path d="M4.47,245.4c-.41-1.21-.15-1.87,1.18-2.09l1.6,2C6.14,246.32,5.58,244.16,4.47,245.4Z"/><path d="M42.7,108.15c2.51.12,2.63.16,4.32,1.23-.11.41.19.15-1,1-.69-1-.42-.62-1-1.41C43.16,109.07,43.8,109.18,42.7,108.15Z"/><path d="M10.11,133.63c-1,.05-2,.1-2.12-.93-.08-.62.63-1,2.07-1C10.08,132.3,10.1,132.94,10.11,133.63Z"/><path d="M107.36,195.91l-2.76.67c0-.65,0-1.21,0-1.79C106.87,194.85,106.87,194.85,107.36,195.91Z"/><path d="M129.19,148c1.1-1.79,1.06-1.1,0-3.16,2.4-.4,1.91,2.27.41,3.37Z"/><path d="M84.64,141.48a1.74,1.74,0,0,1-1.74-2C83,139,83,139,84.25,139,84.38,139.78,84.51,140.62,84.64,141.48Z"/><path d="M26.42,260.31c.32.38.65.76,1,1.21l-2,1.19C24.78,261.36,24.78,261.36,26.42,260.31Z"/><path d="M178.8,194c.84-.75.84-.75,2.35-.85-.35,1-.35,1,.44,1.89C180,195.75,179.77,194.3,178.8,194Z"/><path d="M11.46,135c1.53-1,2.58-2.1,3.4-.59C12.19,136.22,11.68,134.63,11.46,135Z"/><path d="M86.89,162.91l-.61-2.62c1.9-.79,1.25,1.19,2.48,1.45Z"/><path d="M245,220.93c.68.15,1.61-.52,2.05.38s-1.11.83-1.42,1.6C244.57,221,244.62,221.32,245,220.93Z"/><path d="M-4.89,127.05l1.8.57c-.59,1.36-.59,1.36-2.34,1.21C-5.28,128.34-5.13,127.86-4.89,127.05Z"/><path d="M293.79,185.63c-.69.9.63,2-.88,2.61-.44-.49-1.5-.9-.29-2.4C292.79,185.64,293.39,185.69,293.79,185.63Z"/><path d="M-1.54,148.87c1.14.78,1.67,1.36,1.38,2.45l-2-.07C-1.94,150.48-1.78,149.84-1.54,148.87Z"/><path d="M31.05,192.48c1-.54,1.75-1.23,2.84-.64C32.84,193.32,32.54,193.4,31.05,192.48Z"/><path d="M117.1,239.79c-1.95.18-1.38-.57-.72-3.25C117.71,237.46,117,238.63,117.1,239.79Z"/><path d="M38.09,191a9.33,9.33,0,0,1-1,.4c-.43-.37.83-1.28-1.63-1.94,0,.06-.26.07,3.6-.63C39.67,189.33,37.75,189.92,38.09,191Z"/><path d="M146.52,243.21c-1,1-1.26,1.76-2.77,1.19-.14-.06-.91-1.1,1-1.24C145.58,243.1,146.65,243.3,146.52,243.21Z"/><path d="M124.24,144.54c1.63-1.35,1.15-1.12,2.19-.95a9.36,9.36,0,0,1-.7,1.91C124.41,145.28,124.69,145.21,124.24,144.54Z"/><path d="M185.64,129.84c1.1-.89.16-.81,3.31-.58-.07.17-.11.54-.28.6A3.13,3.13,0,0,1,185.64,129.84Z"/><path d="M173.93,232c.09-.93.14-1.41.21-2.08C178.17,230.17,177.87,230,173.93,232Z"/><path d="M268.67,174.47c-.43-.89-.69-1.44-1-2a1.89,1.89,0,0,1,2.23,0C269.54,173.06,269.2,173.61,268.67,174.47Z"/><path d="M33.57,196.14l1.74-.78.95,1.84C32.73,196.71,33.22,197,33.57,196.14Z"/><path d="M141.62,197.54,140,196l2.37-.73C142.09,197.61,142.26,197.24,141.62,197.54Z"/><path d="M266.77,183.75l3.35-2.15C270.45,183,269.48,183.69,266.77,183.75Z"/><path d="M126,243.51c1.36,0,1.2.8,1.49,1.28a2.12,2.12,0,0,1-2.84.71C126.5,244.56,126.24,245,126,243.51Z"/><path d="M158.31,156.33c1.19-1.15,1.57-2.22,3.14-.08Z"/><path d="M-3.52,51.12c-.57-.59-1.09-.88-1.11-1.22-.06-1.11,1.68-1.79,1.73-.11C-2.9,50.11-3.19,50.44-3.52,51.12Z"/><path d="M245.47,225c-.11.32-.11.71-.34.93a2.47,2.47,0,0,1-2.37.88C245.1,224.36,244.62,224.61,245.47,225Z"/><path d="M114.23,206.39a5,5,0,0,0,1.36.93c-.26.55-.5,1.05-.77,1.64C113.23,208.38,114.45,207.46,114.23,206.39Z"/><path d="M32.59,203.72c-1.27-1.93-1.29-1.39-.18-2.46C33.59,201.93,33.7,202.67,32.59,203.72Z"/><path d="M1,21.26-.21,23c-.59-.36-1.17-.62-.68-1.24S0,20.61,1,21.26Z"/><path d="M249.53,215.6c-.64.37-1.19.87-1.42.79-1-.36-.62-1.08-.23-1.9Z"/><path d="M-3.66,25.81l2.88-.08C.14,27.14-3,27.36-3.66,25.81Z"/><path d="M77.66,125.24c-2,.5-2,.5-2.13-1.21C77.05,123.45,76.58,124.92,77.66,125.24Z"/><path d="M68.86,227.83l3,.52L70.73,230C70.16,229.29,69.65,228.72,68.86,227.83Z"/><path d="M222.86-7.57l1.46,1.37-2.44.76C222.21-6.17,222.43-6.65,222.86-7.57Z"/><path d="M46.48,101.33c0,1.51,0,1.51-1.54,2C44.75,102.32,45.33,101.8,46.48,101.33Z"/><path d="M25.14,129.26c-1.05.84-.11,2.08-1.71,2.38C23.09,130.12,23.13,130,25.14,129.26Z"/><path d="M31,200.81l-2-.39c.35-1-.05-.76,1.33-1.28C30.52,199.6,30.71,200.06,31,200.81Z"/><path d="M23.5,253.42c-.1-.7-.19-1.25-.29-1.9,1-.13,1.42.26,1.58.94C24.89,252.86,24.82,252.9,23.5,253.42Z"/><path d="M35.71,182.75l-.78-1.92c1.51.33,1,0,2.21,1Z"/><path d="M7.15,126c-.62,1.12-.62,1.12-2.54.89.38-1.53,1.7-.69,2.58-.87Z"/><path d="M-6.87,188.75l1.48-1.41.82,2.2Z"/><path d="M117.93,227.59a8.2,8.2,0,0,1,1.71-.81c1.14-.17,1.49,1.14-.09,1.3C119.2,228.12,118.83,227.89,117.93,227.59Z"/><path d="M293.4,181.89l-1.21.42c-1-.56-.68-1.35-.59-2.44Z"/><path d="M10.09,136.29a3.08,3.08,0,0,1,1.28-2.81C11.48,135.32,11.81,134.59,10.09,136.29Z"/><path d="M37.06,191.43c-.05.62-.05,1.28-1.31,1.55,0-.71,0-1.33.07-2.17C37.12,191.38,36.82,191.22,37.06,191.43Z"/><path d="M82.82,211.88c-2.09.1-2.09.1-2.11-1.33C81.89,210.36,82.3,211,82.82,211.88Z"/><path d="M149.24,197.75c1.33-.76,1.55-.63,2.08,1.09C150,199.37,150,198.19,149.24,197.75Z"/><path d="M3.94,123.37l-1,1.5C1.85,123.8,1.85,123.8,3.94,123.37Z"/><path d="M216.53,212.75c-.95,1.31-.35,1.12-2.83.75,0-.32-.38-.12,2.58-1Z"/><path d="M264.76,186.92c1.86-1.66,1.25-1.28,2.34-1.27C267,186.78,267.58,186.48,264.76,186.92Z"/><path d="M275,189.73c.2,1.07.2,1.07-.82,2.53C273.65,191.3,274.15,190.63,275,189.73Z"/><path d="M17.89,177c.66-2.24.49-2.3,1.76.12Z"/><path d="M236.2,203.31c-.11.87-.27,1.47-1.25,1.28-.27-.05-.69-.35-.66-.5C234.5,203.16,235.34,203.39,236.2,203.31Z"/><path d="M12.41,229.07c-1.39-.09-1.72-.59-1.46-1.59C12,227.61,12.57,228,12.41,229.07Z"/><path d="M-7.12,159c-.45,1.14-.93,1.6-2,1.59C-9.37,159.32-8.37,159.31-7.12,159Z"/><path d="M-4.58,21c-.49.42-.76.81-1,.8a1.48,1.48,0,0,1-1-.49c-.1-.13.32-.8.44-.79A6.67,6.67,0,0,1-4.58,21Z"/><path d="M48.91,112.5l-.27,1.22C45.66,112.84,46,113,48.91,112.5Z"/><path d="M22.94,135.83c-.26-.94-.83-.46-1.7,0,1.2-2.49,1-2.3,2.16-.22Z"/><path d="M24.53,192.63c.37.25.2-.1.69,1.23-.29.13-.63.41-.85.37C23.21,194,23.29,192.61,24.53,192.63Z"/><path d="M182.8,193.81l1.59-1.54C185.72,193.57,183.89,194.63,182.8,193.81Z"/><path d="M217,214.33c.82-1.05.82-1.05,2-.61C218,214.8,218,214.8,217,214.33Z"/><path d="M95.31,174.13l2.46,0C96.61,175.51,96.34,175.52,95.31,174.13Z"/><path d="M66.6,163.75l-1.77.53c0-.46-.07-.89.12-1.06C65.61,162.65,66.11,162.91,66.6,163.75Z"/><path d="M251.37,219c.82-.81.36-.89,1.76-.16C252.38,219.82,252.76,219.74,251.37,219Z"/><path d="M281.13,210.63a2.21,2.21,0,0,1,.39-.17c1.68,0,1.45,1.2.82,1.28C281.42,211.86,281.27,211.29,281.13,210.63Z"/><path d="M19.34,174.2c-.85-.73-1.21-1.18-.45-1.92C19.69,172.69,19.46,173.27,19.34,174.2Z"/><path d="M96.44,171.28c.11.71.42.92-.49,1.73,0,0-.61-.16-.61-.27C95.28,171.78,96,171.56,96.44,171.28Z"/><path d="M55.82,109.23,53.46,109C54.7,107.91,54.7,107.91,55.82,109.23Z"/><path d="M-12.94,121.1l.92-1.46,1.07,1.35C-11.28,121.41-10.95,121.36-12.94,121.1Z"/><path d="M-9.67,127.14l1.62-.92.38.93C-8.71,127.53-10.86,128.51-9.67,127.14Z"/><path d="M169.74,231.31c-1.52.57-1.52.57-1.88-.63A1.39,1.39,0,0,1,169.74,231.31Z"/><path d="M142.57,228.31c1.05-.56,1.05-.56,1.71.83C143.84,229.66,144.2,229.81,142.57,228.31Z"/><path d="M296.13,206.17c-.65,1.3-1.84.09-2.65.59C295.15,205.76,295.22,205.75,296.13,206.17Z"/><path d="M-3.75,145.28c.66-.62,1.31-1.35,2.57-.9C-2,145.1-2,145.1-3.75,145.28Z"/><path d="M75.77,9.07a2.15,2.15,0,0,1,2.51,0C78.05,9.74,78.53,9.68,75.77,9.07Z"/><path d="M163.53,213.84c1.15-1.46,1.15-1.46,2.39-.37Z"/><path d="M131.45,237.42c-.38-.94.71-1.4,2.25,0A3.67,3.67,0,0,1,131.45,237.42Z"/><path d="M123.47,228.18a6.35,6.35,0,0,1-1.2.77c-.14.05-.65-.32-.61-.41C122.19,227.18,122.49,227.73,123.47,228.18Z"/><path d="M145.75,189.15c.57.18,1.15.35,1.95.58C146.2,190.56,146.2,190.56,145.75,189.15Z"/><path d="M180.17,192c-1.7.17-1.74.12-1.06-1.41Z"/><path d="M146.56,243.24c-.44-1.17,1.33-1.27,2.48-.76C146.24,243.29,146.5,243.2,146.56,243.24Z"/><path d="M106.72,203.61c-1.66,0-1.84-.59-1.65-1.41C105.81,201.84,105.43,201.61,106.72,203.61Z"/><path d="M43.88,114.92c-2.11,1.87-1.71,1.68-2.21,1.47C42.41,115.08,42.59,114.23,43.88,114.92Z"/><path d="M93.27,237.35c-.4-1.32-.4-1.32,1.07-1.93Z"/><path d="M16.27,136.87c-1-.59-.63-1.23-.19-2.06C16.84,135.77,16.84,135.77,16.27,136.87Z"/><path d="M287.75,171.12c2.08-.14,1.78-.19,1.92.16C287.43,172.53,287,173.07,287.75,171.12Z"/><path d="M136.32,166.13c-2.68,1.11-2.26,1.09-2.53.58.54-.75,1.61-.54,2.36-.91Z"/><path d="M157,203.41c1.43-1.14,2,.3,1.25.63S157.15,204,157,203.41Z"/><path d="M172.25,166.81c.66-.41,1.33-.81,1.9.23C172,167.21,172.32,167.31,172.25,166.81Z"/><path d="M255.39,224.49c-.12,1.16-1,1.17-2,1.52A2.21,2.21,0,0,1,255.39,224.49Z"/><path d="M86.6,221.66c-.68-.64-.68-.64-.33-1.81C87,220.72,87,220.72,86.6,221.66Z"/><path d="M121,239.39c-1.32.6-1.32.6-2.29-.24C119,238.73,118.61,238.75,121,239.39Z"/><path d="M113.24,210c1.79-.78,1.86-.78,2.88,0C113.42,210.41,114,210.43,113.24,210Z"/><path d="M290.4,199.13c1.08,0,.7,0,1.35.32-1.24,1.45-.95,1.29-1.43,1.13C290.35,200.15,290.37,199.71,290.4,199.13Z"/><path d="M263.56,215.52l1.83-.91C265.28,215.67,265.28,215.67,263.56,215.52Z"/><path d="M44.81,239.86c-1.18-.5-.53-1.14-.6-1.89C45.42,238.45,45.29,239,44.81,239.86Z"/><path d="M3.79,101.44l1.78-.58C5,102.31,4.9,102.34,3.79,101.44Z"/><path d="M149.4,226.52l-2.05-.64c.15-.24.21-.54.39-.61C148.86,224.8,148.9,225.58,149.4,226.52Z"/><path d="M.7,23.41c2.41-.49,2.41-.49,2.1.91Z"/><path d="M44.16,105.24c-.73-.45-.8-.11.12-1.42C45.13,104.19,45.11,103.89,44.16,105.24Z"/><path d="M135.18,179.26c1.2,1.22,1.38.74,0,1.89C134.66,180.89,134.71,181.21,135.18,179.26Z"/><path d="M286.82,197.15,288,198.3C286.6,198.78,286.6,198.78,286.82,197.15Z"/><path d="M203.39,223.23c-.8-.88-.8-.88,1-1.57Z"/><path d="M285,174l-2.42.38C283.26,173.59,283.26,173.59,285,174Z"/><path d="M134.09,164.41c.33.06.43.06.44.09.25.44.58.91-.11,1.3a1.1,1.1,0,0,1-.66-.12A11.87,11.87,0,0,1,134.09,164.41Z"/><path d="M140.63,201c-.33-1.22.29-1.6,1-1.94C142.32,199.47,142.43,199.07,140.63,201Z"/><path d="M54.26,102l-1.67,1.21C52.57,102.27,52.57,102.27,54.26,102Z"/><path d="M160.1,196.88c.36,1.16.36,1.16-.88,1.44C159.54,197.8,159.77,197.43,160.1,196.88Z"/><path d="M18,123.78c-.38,1.1-.9,1.21-1.52,1-.12-.06-.12-.57-.07-.59C16.88,124,17.34,123.93,18,123.78Z"/><path d="M28.28,200.16c-.85-.47-1.24-.9-.81-1.8C28.47,198.7,28.54,199.26,28.28,200.16Z"/><path d="M289.13,190.58c-.17.48-.34,1-.53,1.47C287.72,191.57,287.72,191.57,289.13,190.58Z"/><path d="M163.11,202.91a6.61,6.61,0,0,1-1.1.8c-.09,0-.62-.4-.58-.49a2.46,2.46,0,0,1,.79-.82C162.29,202.35,162.67,202.66,163.11,202.91Z"/><path d="M282.32,204.6c-1.06-.59-.68-1.13-.08-1.87C283,203.43,283.06,203.94,282.32,204.6Z"/><path d="M171.53,239.56c-1.44.34-1.44.34-1.1-1.47Z"/><path d="M28.36,187.9l1.33-1.22c.1.66.18,1.13.27,1.76Z"/><path d="M124.93,213.94l1.68-.82C126.42,214.51,126.42,214.51,124.93,213.94Z"/><path d="M69.13,149.38c1.13.43.57,1.14.84,1.77C68.78,150.73,68.78,150.73,69.13,149.38Z"/><path d="M59,154.41c-.51.29-1.1,1-1.7-.06,0-.09.32-.5.55-.54S58.31,154,59,154.41Z"/><path d="M281.72,192.15c.95-.47,1.55-.85,2.27-.14A1.55,1.55,0,0,1,281.72,192.15Z"/><path d="M43.12,173.76c-.83.71-.39.74-1.63.15C42,173.29,41.59,173.28,43.12,173.76Z"/><path d="M167.23,211.76c1.11.94,1.23.54.07,1.57C166.72,213,166.76,213.32,167.23,211.76Z"/><path d="M28.66,186.27c-.48.88-1.3,1.13-2.61,1C27.17,186,29.15,186.58,28.66,186.27Z"/><path d="M109.16,151.56c-.06-.4-.12-.8-.22-1.41.41.17.86.24.93.42C110,151,110,151.52,109.16,151.56Z"/><path d="M164.13,230.61c-.31.3,0,.15-1.1.57-.07-.19-.27-.43-.2-.56.53-1,1.08-.32,1.39-.15Z"/><path d="M152.54,241.86c-.35,1.07-1.12,1.12-1.77,1.35C150.44,242.72,150.16,243,152.54,241.86Z"/><path d="M12.94,257.77l-1.75,1.58C11.17,258.28,11.36,257.76,12.94,257.77Z"/><path d="M101.76,154.23c-1.36.19-1.36.19-2-.63C101.15,153.17,101.63,154.38,101.76,154.23Z"/><path d="M17.15,122.88c-.75.83-1.35.63-1.88-.09Z"/><path d="M101.74,154.26h2c-1.16,1.1-1.24,1.09-2,0Z"/><path d="M.4,126.79c-.75.25-1.57,1.1-2.52-.22Z"/><path d="M122.86,244.56c-1.11,1.43-.79,1.3-1.41.94-.15-.65-.17-1.24.83-1.32Z"/><path d="M-19.39,106.94c.64-1,1.2-.85,1.8-.56C-17.53,107-17.21,106.78-19.39,106.94Z"/><path d="M295.65,187.78a1.23,1.23,0,0,1-.52,1.8C294.62,189.36,294.58,189.71,295.65,187.78Z"/><path d="M306,187.88l-1.92.14c.43-.55.69-.89,1.08-1.37Z"/><path d="M-1.69,24l2,.29C-.68,25-1.11,24.73-1.69,24Z"/><path d="M154.14,133.85c-.87-.59-.69-.35-.35-1.06C154.86,133.37,154.82,133.13,154.14,133.85Z"/><path d="M104.06,205.3l2-.64C105.7,205.76,105.24,206,104.06,205.3Z"/><path d="M112.3,181c1.07-2,.73-1.78,1.08-.67C113.58,181,113.21,181.15,112.3,181Z"/><path d="M98.52,141.16c1.17-.34,1.17-.34,1.29.79Z"/><path d="M78.74,196.05l.94-1.15c.21.35.42.53.4.7C80,196.16,79.77,196.67,78.74,196.05Z"/><path d="M7.19,126c-.14-.32-.51-.76-.38-1,.33-.49.87-.42,1.48.11C7,126.11,7.12,126,7.19,126Z"/><path d="M49.29,119.93l-1.66-.41C48.44,118.86,48.44,118.86,49.29,119.93Z"/><path d="M73.17,117c.82.62.83.28.34,1.25C72.77,117.86,72.8,118.21,73.17,117Z"/><path d="M31.63,242.9c-.17-.29-.35-.59-.49-.89a1.53,1.53,0,0,1,.48-.23,7.89,7.89,0,0,1,.65.76Z"/><path d="M299.54,204.81c.37-.77,0-.61,1.51-.61C301,204.84,301.3,204.69,299.54,204.81Z"/><path d="M98.47,240.58c-.64-.72-.42-1.1.1-1.39.09-.05.49.14.48.15C98.91,239.7,98.73,240.06,98.47,240.58Z"/><path d="M264,188.31c-.06.68.17.4-.7,1.17-.45-.2-.46.06.17-1.29Z"/><path d="M79.37,191.54c.53,1,.53,1-.4,1.85C79.12,192.69,79.25,192.11,79.37,191.54Z"/><path d="M91.41,180c-1.32-.77-.22-1.06,0-1.48C91.93,178.56,91.89,178.28,91.41,180Z"/><path d="M46.58,207.21,45,207.8C45.06,206.67,45.06,206.67,46.58,207.21Z"/><path d="M33.57,196.14c-.34.82,0,.66-1.67.59C32.45,195.89,33,195.87,33.57,196.14Z"/><path d="M109,204.88c1.34.57.6,1.19.53,1.71C108.93,206.58,109.09,206.89,109,204.88Z"/><path d="M107.79,154.06l-1.19-.61C107.74,153,107.74,153,107.79,154.06Z"/><path d="M76.79,150.45c-1.68.38-1.37.47-1.56-.13C76.94,149.82,76.62,149.76,76.79,150.45Z"/><path d="M69.63,126.13l-.89-.78C69.56,125.27,69.56,125.27,69.63,126.13Z"/><path d="M37.21,100.71c-.87-.32-.88-.74-.21-1.33C37.77,99.73,37.76,100.15,37.21,100.71Z"/><path d="M50.15,104.72c1.89-.37,1.56-.41,1.74,0-.8.47-.38.39-1.64.44C50.22,105,50.18,104.86,50.15,104.72Z"/><path d="M1.75,117.76c-.45-1-.63-1.6.83-1.7Z"/><path d="M53.58,123.09l-1.19.56C52.38,122.88,52.38,122.88,53.58,123.09Z"/><path d="M156.14,184.15c1.74.1,1.49-.06,1.4.55C155.8,184.57,156.05,184.72,156.14,184.15Z"/><path d="M152.19,187.33c-.12.94-.54,1.18-1.62,1A3.27,3.27,0,0,1,152.19,187.33Z"/><path d="M133.59,200.33c.18-.3.34-.6.54-.89a1,1,0,0,1,.34.08c-.06.32-.15.64-.24,1Z"/><path d="M179.73,196.58c-1.79,0-1.5.11-1.49-.51C180,196,179.68,195.84,179.73,196.58Z"/><path d="M234.52,197.22c1.29-.38,1.6-.17,1.42.75Z"/><path d="M288.38,189.06c1.67.15,1.4,0,1.35.61C288.07,189.7,288.34,189.86,288.38,189.06Z"/><path d="M215.82,208.18c1.22,1.39,1.11,1,.44,1.58C215.27,208.89,215.48,209.28,215.82,208.18Z"/><path d="M-4,190.72l1.07-1c.18.26.32.37.3.44C-2.76,190.75-3.1,191-4,190.72Z"/><path d="M152,229l-1.26-.74c.17-.17.31-.43.51-.48C152,227.64,152.23,228,152,229Z"/><path d="M59.76,248.7c-.89.9-.56.73-1.28.42C59.13,248.14,58.83,248.2,59.76,248.7Z"/><path d="M31.75,180.37l-1.3,1C30.43,180.4,30.43,180.4,31.75,180.37Z"/><path d="M146.36,158.68c1.94-.31,1.62-.35,1.68,0C146.15,159,146.47,159,146.36,158.68Z"/><path d="M248.13,227.3c0,.95-.43,1.1-1.53,1Z"/><path d="M18.05,136.93l1.77-.61C19.25,137.11,19,137.42,18.05,136.93Z"/><path d="M278.47,173.86c-.93.95-.73.84-1.09.73.13-.94,0-.66.76-1Z"/><path d="M-16.27,97.14c-.58,1.23-1.15.93-2.2.67Z"/><path d="M.78,119.58c.14-.65.22-1,.32-1.43C1.86,118.62,2.13,119,.78,119.58Z"/><path d="M88.14,234.49c.89.74.89.74,0,1.31Z"/><path d="M28.69,186.29c.17-1,.17-1,1.64-.42C28.45,186.32,28.64,186.25,28.69,186.29Z"/><path d="M18,114c-.17.9-.69.87-1.69.68C17.49,113.88,17.05,114.07,18,114Z"/><path d="M230.73-16l-1.24.79C229.61-16.07,229.61-16.07,230.73-16Z"/><path d="M293.14,208.41c-.44-.66-.61-.41.55-1.07C294,207.86,294.13,207.62,293.14,208.41Z"/><path d="M171.41,234c.74-.12,1.14-.19,1.56-.22S173.1,235.36,171.41,234Z"/><path d="M40.31,37.79l1.8-.46C41.79,38.15,41.41,38.31,40.31,37.79Z"/><path d="M106,214l-1.15.64C104.93,213.83,104.93,213.83,106,214Z"/><path d="M270.78,188.25c-1.16.38-.95.46-1-.26C270.94,187.92,270.74,187.85,270.78,188.25Z"/><path d="M50.73,108.2c-.49-.82-.46-.65-.27-1,1.09.5,1.09.28.23.94Z"/><path d="M71.8,123.88c1.26,1,1.14.73.84,1.07C71.2,124.21,71.35,124.45,71.8,123.88Z"/><path d="M129.48,205.11l1.1-.54C130.54,205.56,130.54,205.56,129.48,205.11Z"/><path d="M116.23,206.16l2,.32C117.18,207.14,116.7,207.23,116.23,206.16Z"/><path d="M23.94,133.48c-1.26-.67-1.14-.46-.86-.9C24.5,133,24.34,132.81,23.94,133.48Z"/><path d="M68.83,147.92c-1.25.76-1,.75-1.33.3C68.77,147.44,68.49,147.48,68.83,147.92Z"/><path d="M233.45,211.33c-.86.77-1,.16-1.64-.42Z"/><path d="M29.21,262.08c-1.25.2-1,.23-1.13,0C29.32,261.56,29.08,261.53,29.21,262.08Z"/><path d="M58,249.21c-1.35.32-1.13.33-1.32.07.77-.62.47-.47,1.29-.43Z"/><path d="M-13.36,140.35l1,.45C-13.33,141.6-13.11,140.61-13.36,140.35Z"/><path d="M273.93,211.51c1.5-.07,1.25-.15,1.32.22-1.07.27-.71.21-1.38.07Z"/><path d="M53.72,200.47c-.75-.82-.66-.62-.34-.9C54.24,200.3,54.19,200.11,53.72,200.47Z"/><path d="M125,229c-1.42.62-1,.58-1.51,0C124.31,228.45,123.94,228.53,125,229Z"/><path d="M4.82,135.62a1.28,1.28,0,0,1,.33.06c0,.33,0,.66-.07,1C4.37,136.55,4.35,136.75,4.82,135.62Z"/><path d="M274,194.07c-.78.21-1.12.1-1-.47,0-.14.23-.26.34-.4Z"/><path d="M219.44,198.39c-1,.61-.6.62-1.41.22C218.73,198,218.4,198.14,219.44,198.39Z"/><path d="M100.2,216.37c-1.63.11-1.37.18-1.38-.22C100.44,216.06,100.18,216,100.2,216.37Z"/><path d="M140.12,170.56c-1.38.22-1.14.27-1.26-.07C140.21,170,140,170,140.12,170.56Z"/><path d="M254.91,218.38c.2,1.1.2,1.1-.45,1.66C254.17,219.88,254.13,220.15,254.91,218.38Z"/><path d="M164.06,204.59c-1.21.64-.85.56-1.34.24C163.41,204.22,163.08,204.35,164.06,204.59Z"/><path d="M279.21,214.63c1.32.46,1.15.28.92.78C278.75,215.05,278.92,215.23,279.21,214.63Z"/><path d="M100.16,213.16l1.37.71C100.64,214.29,100.3,214.12,100.16,213.16Z"/><path d="M284.94,182.55c-.58.63-1,.56-1.54.07A1,1,0,0,1,284.94,182.55Z"/><path d="M282.26,183.45c-.65-.59-.53-.38-.12-.84C282.9,183.13,282.9,182.93,282.26,183.45Z"/><path d="M-.19,223c-.79.71-.44.7-1.32.36C-1,222.76-1.34,222.85-.19,223Z"/><path d="M293,191.3c.28-.9.82-.72,1.28-.73C294.41,191.05,294.64,190.87,293,191.3Z"/><path d="M1.79,199.24c.88.65.82.37.36,1C1.61,200,1.69,200.24,1.79,199.24Z"/><path d="M190.78,181.5l-.4.62a1.68,1.68,0,0,1-.45-.37c0-.06.16-.31.3-.34S190.58,181.46,190.78,181.5Z"/><path d="M135.35,189.23a4.51,4.51,0,0,1,.73.59s-.19.36-.25.35C134.7,190,135.07,189.86,135.35,189.23Z"/><path d="M286.5,207.75c-1,.37-.72.48-1.39-.13C285.87,207.22,285.52,207.19,286.5,207.75Z"/><path d="M119.48,241.64c.54-.3.31-.42,1,.45C120,242.39,120.24,242.47,119.48,241.64Z"/><path d="M-14.41,124.27c-1.3.47-1,.49-1.26.1C-14.41,123.7-14.67,123.69-14.41,124.27Z"/><path d="M75.92,106.84c-.64-.48-.65-.24-.13-.89C76.14,106.15,76.12,105.9,75.92,106.84Z"/><path d="M127.51,242.28c.1-.37.21-.74.37-1.33C128.75,241.73,128.17,242,127.51,242.28Z"/><path d="M75.36,105.13c1.29-.58,1-.58,1.26-.12C75.31,105.5,75.56,105.52,75.36,105.13Z"/><path d="M48.27,104.36c1.29-.41,1.06-.44,1.19,0C48.13,104.62,48.36,104.65,48.27,104.36Z"/><path d="M189.91,130.22l.51.26a2.1,2.1,0,0,1-.5.4c-.07,0-.37-.16-.37-.26S189.76,130.38,189.91,130.22Z"/><path d="M68.4,146.65c-1.13-.14-.94-.06-.87-.44C68.66,146.35,68.49,146.25,68.4,146.65Z"/><path d="M72.1,143.3a5.75,5.75,0,0,1,1-.61c.07,0,.35.27.32.32C73,143.58,72.64,143.37,72.1,143.3Z"/><path d="M71.46,20.11a3.77,3.77,0,0,1-.76.31c-.07,0-.29-.24-.25-.3C70.79,19.57,71.15,20,71.46,20.11Z"/><path d="M75.3,12.93l1.3-.12c-.34.82-.86.58-1.31.49C75,13.25,75.23,13.06,75.3,12.93Z"/><path d="M69.58,9.53c0,.56.21.81-.64.9C69.27,9.33,69.11,9.49,69.58,9.53Z"/><path d="M287.23,211.35c-.18.34.08.32-1.08.17C286.42,210.93,286.19,211,287.23,211.35Z"/><path d="M70.31,7.32c.91-.35.72-.39.89.1C70.24,7.62,70.43,7.65,70.31,7.32Z"/><path d="M-3.46,149.05l.61.55a2,2,0,0,1-.58.36c-.12,0-.43-.16-.42-.24A2.53,2.53,0,0,1-3.46,149.05Z"/><path d="M280,202.59c.58-.87.41-.75.74-.63C280.38,202.91,280.55,202.79,280,202.59Z"/><path d="M66.48,234.75c.94.34.83.21.69.56C66.09,235.1,66.22,235.23,66.48,234.75Z"/><path d="M90.72,252.7c-.92.59-.6.64-1.25.08C90,252.38,89.64,252.42,90.72,252.7Z"/><path d="M145.92,232.66c-.51-.38-.56-.18,0-.78C146.31,232.28,146.29,232.07,145.92,232.66Z"/><path d="M92.25,176.79c-.81.16-.58.23-.89-.26C92.06,176.3,91.82,176.3,92.25,176.79Z"/><path d="M241.68,204.9h-.84a1.31,1.31,0,0,1,.07-.31C241.92,204.57,241.74,204.61,241.68,204.9Z"/><path d="M216.07,206.66c.55.5.6.27,0,.88C215.63,207.21,215.59,207.44,216.07,206.66Z"/><path d="M110.44,188.41c-.3.8-.16.69-.59.58C110.18,188.2,110,188.31,110.44,188.41Z"/><path d="M210.3,171.33c.31.4.72.55-.07,1-.06,0-.43-.15-.41-.19A4.17,4.17,0,0,1,210.3,171.33Z"/><path d="M21.23,234.68c.1-1,0-.84.45-.81C21.51,234.86,21.62,234.7,21.23,234.68Z"/><path d="M281.87,187.11c-.53.81-.31.67-.91.47C281.53,186.78,281.32,186.86,281.87,187.11Z"/><path d="M35.68,179.08c-.74.39-.46.42-1.11.1C34.93,178.74,34.62,178.74,35.68,179.08Z"/><path d="M92.11,139.46c-.53.49-.33.39-.83.18C91.9,139.21,91.68,139.29,92.11,139.46Z"/><path d="M103.55,151.76c.25.3.33.15-.12.61C103.09,152,103.05,152.13,103.55,151.76Z"/><path d="M-11.29,126.48c1.24-.16,1.45.22,1.62.66C-9.93,127.43-9.64,127.5-11.29,126.48Z"/><path d="M61.88,250.69c.53.46.53.26.13.78C61.45,251.07,61.55,251.25,61.88,250.69Z"/><path d="M-.14,161c-.83.29-.54.4-1.15-.21C-.72,160.53-1,160.42-.14,161Z"/><path d="M225.09-5.82c.71.8.69.61.3.88C224.67-5.72,224.68-5.53,225.09-5.82Z"/><path d="M115,152.64a1.07,1.07,0,0,1-.27-.16c.13-.25.3-.5.45-.74C115.64,152,115.74,151.86,115,152.64Z"/><path d="M25.36,248.25c-.53.5-.3.47-.9.21C24.88,247.92,24.68,248,25.36,248.25Z"/><path d="M43,175.84c-1.13.07-.94.18-.95-.38C43.25,175.55,43.07,175.45,43,175.84Z"/><path d="M89.74,250.18c-.86.45-.67.48-.86,0C89.8,249.92,89.61,249.89,89.74,250.18Z"/><path d="M22.12,146.51c-.2.39,0,.37-.64.18C21.65,146.35,21.47,146.38,22.12,146.51Z"/><path d="M148.05,185.74c-.45-.19-.4,0-.24-.59C148.17,185.3,148.15,185.12,148.05,185.74Z"/><path d="M155.62,179.56c.46.83.38.56.12,1C155.08,180.34,154.72,180.38,155.62,179.56Z"/><path d="M107.94,242.92c-.72.6-.43.55-1.11.2C107.52,242.51,107.23,242.62,107.94,242.92Z"/><path d="M44.8,107.26c.29.09.59.17.87.27a1,1,0,0,1-.07.29C44.42,107.72,44.6,107.77,44.8,107.26Z"/><path d="M269.2,167.37c.46-.38.22-.43.94,0C269.61,167.91,269.82,167.88,269.2,167.37Z"/><path d="M25.94,85.73c1.12.35,1,.2.81.58C25.6,86,25.76,86.1,25.94,85.73Z"/><path d="M91.8,145.27a2.74,2.74,0,0,1-.59-.24,1.35,1.35,0,0,1,.3-.58s.45.08.46.15A2.11,2.11,0,0,1,91.8,145.27Z"/><path d="M154.33,189.53c.86.49.74.3.41.8C153.92,189.76,154,189.94,154.33,189.53Z"/><path d="M81.57,237.94c-.09-.27-.17-.53-.26-.79l.34-.08C82,238,82,237.85,81.57,237.94Z"/><path d="M144.06,192.39c-1.07.57-.85.56-1.07.23C144.06,192.05,143.84,192.07,144.06,192.39Z"/><path d="M158,192.74c.64.42.54.24.24.73C157.57,193.12,157.61,193.3,158,192.74Z"/><path d="M53.23,98.2c.28.45.45.28-.63.83C52.29,98.57,52.18,98.76,53.23,98.2Z"/><path d="M81.06,93.43c1,.33.88.2.74.54C80.79,93.76,80.93,93.89,81.06,93.43Z"/><path d="M286.17,177.63c-.39-.94-.42-.75.06-.91C286.58,177.68,286.62,177.49,286.17,177.63Z"/><path d="M-5.14,157.08c-.46.61-.16.56-1.05.39C-5.9,157-6.2,157.09-5.14,157.08Z"/><path d="M39,188.86c1.7-.85,1.37-.83,1.63-.35C39,189.06,39.26,189,39,188.86Z"/><path d="M263.24,185.44c-.23.86-.07.74-.67.62C263,185.21,262.82,185.31,263.24,185.44Z"/><path d="M50.69,108.19c.34,1,.61.91-1,.43,0-.33-.16-.22,1.08-.42Z"/><path d="M282.13,221.89c-.68.93-.41.86-1.16.43C281.62,221.33,281.35,221.4,282.13,221.89Z"/><path d="M131.68,209.2c.68.58.69.38.07.87C131.12,209.48,131.18,209.71,131.68,209.2Z"/><path d="M36.27,149.77c-.5.8-.35.69-.66.61C35.91,149.51,35.76,149.62,36.27,149.77Z"/><path d="M56.41,97.4c.56.41.51.22.2.71C56.08,97.82,56.16,98,56.41,97.4Z"/></g><g class="cls-1"><rect class="cls-2" x="-21.17" y="-1.95" width="311.99" height="183.01" transform="translate(-12.2 21.87) rotate(-8.87)"/><path d="M76.92,186.67c-.86-.41-1.41-1-1-2,.86.51,1.57,1,1.4,2Z"/><path d="M234.53,161.16c1.53-.49,1.53-.49,2.16.56C235.22,162,235.7,162.09,234.53,161.16Z"/><path d="M250.65,158.42c1.06,0,1.15.4,1.12,1C251.26,159.45,251.47,159.59,250.65,158.42Z"/><path d="M249.55,62.6c1.58.23,1.14,1.31,1.58,1.81.71.82.27,1.47,0,2.22l1.33.76c1.34-.94,2.56-2.2,4.56-1.9.2-.75.37-1.36.53-1.94l2.57-.7c-.45,2-1.26,2.1.55,2.67,1.06.33.93.94.53,1.76l-2.79-.19c-1.61.71-1,2.3-1.88,3.41-.78-.36-1.38-1-2.39-.55-.31.13-1.13,0-1.21-.25-.78-1.84-2.52.19-4.23-1.43a9.66,9.66,0,0,0-2.67-1.17c-.14-.71.56-1.23,1.25-1.52a2,2,0,0,0,1.23-1.48A6.64,6.64,0,0,1,249.55,62.6Zm7.81,4.46c-.73-.12-1.21-.35-1.49-.22-.9.4-.81,1.06-.57,1.83Z"/><path d="M186.32,50.54c0-.29-.09-.57-.13-.86-1.84.23-1.84.23-2.66,1.91l-2.7.65a4.08,4.08,0,0,1,.43-1.29c1.39-1.78,1.29-2.45-.69-3.36,5.51-2.39,6.83,2.71,5.5-.46l1.53-.32c.31.89.59,1.69.86,2.49,1.91-.77,2.71-.53,4,1.17-1.52,1.48-2.67,3.36-5.36,3.58-.54.05-1.11.26-1.37-.52.79-.1,1.31-1,2.31-.41a1.28,1.28,0,0,0,.9-.49c.08-.21-.21-.68-.48-.77-.42-.14-1-.06-3.23.12-.14-1,.42-1.28,1.14-1.46l1.06.57.59-1.48Z"/><path d="M225.67,88.28c0-.36,0-.63,0-1.12l2.62.47-1.53,2.88c1.21.8.85,1.92.41,3.27-.9-1-.33-1-2.4.15s-3.68-.73-2.88-1.6c2.12-2.3,3-2,2.36-3.19C223.75,88.2,225.13,88.48,225.67,88.28Z"/><path d="M59,95.55c-1.76,1.12-3.59,2.06-5.94.78.11-.49.24-1.07.39-1.8,1,.24,1.76.52,2.6-.11.39-.29,1.29-.08,2-.1.81-1-.63-1.18-.85-1.85.25-1,.52-2,.88-3.4.94,1.45,1,2.8,1.9,3.8a31.07,31.07,0,0,1,2.3,3.07C60.79,96.49,60.79,96.49,59,95.55Z"/><path d="M76.73,86.46c-.7.58-1.92.93-1.23,2.09a4.26,4.26,0,0,1-3,.39c1.35-1.88,1.93-2.22.59-2.56-.12.89-1.85,1.41-.56,2.54.13,1.34-1.38,1.1-2,1.65l-2.68-.83a4.63,4.63,0,0,0,1.84-2.83c.05-.59,1.05-1.15,1.73-1.85,1,1,2.89.06,3.59,1.6.37-.38.45-.17-.26-1.24-.49-.74-.49-.74.85-1.32.52.42,0,1.46,1.11,1.59C76.8,85.7,76.65,86.55,76.73,86.46Z"/><path d="M.78,75c2-2.4,2.13,1.37,3.94-.3L3.53,73.45l1.28-.56C6.31,74.11,8,75.05,8.9,76.72c.42.81.51.77-.12,2C5.23,78.84,3.44,76.42.78,75Z"/><path d="M246.83,50.42c.29-.79.45-1.24.64-1.78l1.3,0a4,4,0,0,1-2.43,2.56c1.55.08,2.93-.12,3.91-1.41.18,1.66-1.93,1.83-2.67,3,1.08.52,1.58-.44,2.3-.65.34.78.34.78-1.13,2.05-1.27-.08-2.19-.58-2.43-1.54l-3.43.1c.08-.54.14-.91.2-1.36-.57-.53-2,0-2.21-1-.16-.74-1.07-1.37-.24-2.37a10.91,10.91,0,0,0,2.61,2.15A12.93,12.93,0,0,0,246.83,50.42Z"/><path d="M281.76,108.82a4.79,4.79,0,0,1,2.74-1.8c-.42-1.29,1.94-.76,1.55-2l2.92,1.38c-.7,1-3.07,0-3.32,1.9l1.56.56c-.14,1-.27,2-.44,3.21C284.55,111.41,282.71,110.65,281.76,108.82Z"/><path d="M279.33,69.79l-1-.56c.71-.52,1.12-1.17.55-2,2.24.6,2.4.83,1.69,2.51a5.31,5.31,0,0,1,2.58-.47l-1.13.84c1.11,2.19-1.6,2.19-1.86,2.85-.48,1.2-2.06.37-2.71,1.2-4.14-2.22-1.85-.41,1.23-2.2-.43-.4-.87-.79-1.34-1.21Z"/><path d="M178.1,42.12c-1.44-1-.27-2.15-.77-3.06l1.85-1.5c-.72-1.59-.71-1.6,2.16-2.88.52.52.62,1.82.34,4.55Z"/><path d="M232.09,2.6c-.4-.4-.7-.92-1.19-1.14A4.57,4.57,0,0,1,228.35-1c-.18-.4-.64-.7-.89-1.08A2.41,2.41,0,0,1,227.3-3c2.34.11,5.36,2.09,5,3.81-.21,1,1.93,2.71.33,3.76a2.79,2.79,0,0,1-3.38-.09Z"/><path d="M253.83,63.07c-.86-.89-3.29-1.25,0-2.75a3.83,3.83,0,0,1,2.58-.69,6.68,6.68,0,0,0,2.49-.62c.59.69.6,1.28-.25,2a22.41,22.41,0,0,0-2.12,2.25A24.27,24.27,0,0,0,253.83,63.07Z"/><path d="M278.92,106.69c2.12-1.53,3-3.52,3.9-5.44,1.77.3,2.36,1.31,1.18,2.24-2.48,1.94-1.85,5.28-3.55,5.19-.83,0-1.09-.5-1-1.2C279.45,107.25,279.14,107,278.92,106.69Z"/><path d="M60.75,87.73c3.09.08,3.64,1.5,1.52,4.35-.94-.25-2.24,0-2.59-1.14A3,3,0,0,1,60.75,87.73Z"/><path d="M192.85,11.82c-.66,1.75-2.54,1.73-2.7,1.91-1.23,1.29-2.56.63-4,.43.28-.84.52-1.56.77-2.29a7.18,7.18,0,0,0,2.26.79,6.69,6.69,0,0,0,2.17-.81c0-.68,0-1.26,0-1.9l2,0s0-.45-.21,1.57Z"/><path d="M276.22-16l-.09-.06c.54.22-3.5.67-3.55.68-.05-.71-.09-1.18-.13-1.69-1.79.61-.75,2.18-1.75,3a8.34,8.34,0,0,0,1,1.3l2.28-.26c-.06-1.39,1.23-1.57,2.36-2Z"/><path d="M209.8,17.31c-.59-2.68,2.3-.75,2.8-2.89-4.6-.51-3.67-.13-4.45-1.56.9-.71.93.13,1.26.42l1.21-.56c.89.5,2.09.83,2.49,1.52a2.42,2.42,0,0,1-.45,2.37C211.67,17.73,214.74,18.38,209.8,17.31Z"/><path d="M186.88,40.48c-.18-2.15-3.83-.46-3.3-2.41.44-1.57,4-.71,6.18,2.32l0,0c-1,1.06-2-.09-2.94.1Z"/><path d="M169.63,138c-1.06-.32-2-1.11-3.27.3.08-.86,0-1.33.18-1.54a4.82,4.82,0,0,0,1.78-2.79l3.62,1.41C169.77,136.65,170.38,136,169.63,138Z"/><path d="M164.66,124.35c.13-.69.24-1.3.37-2a23.82,23.82,0,0,0,3.45.51c1.06,0,2.11-.23,3.1.67l-2.16,1c-.28-1.13.08-.92-1.72-.75-.2.56-.38,1.08-.62,1.78Z"/><path d="M211.25-12.83c1.28-.69,2.9-.73,4.22-1.71.63,2.8-.81,2.64-2.4,2.73-.08,1.74.27,1.27-1.74,2.05C211.3-10.77,211.28-11.71,211.25-12.83Z"/><path d="M83.14,28c1.58.21,3.49-1.22,4.74.7-.88.66-1.25,1.86-2.63,1.76S83.37,29.2,83.14,28Z"/><path d="M218,84.65c-.61,1-1.58.73-2.47.69-1-.92-.24-1.74.18-2.44-.85-1.65-.83-1.29-.28-1.69,2.92,1.63,2.41.84,2.54,3.47Z"/><path d="M181.91,61c-.75-1.87-.78-1.19.29-3-.42-.28-.1-.34-1.75.53-1.26-2.14.67-3.56.94-2.4s-1.41.9,2.1.48C183.22,58.14,183.48,59.6,181.91,61Z"/><path d="M209.43,4.2a12,12,0,0,1,2.06-.5c2.84-.11,1.83,2.62-.2,2.69C210.17,6.42,209.75,5.88,209.43,4.2Z"/><path d="M193.58,44.37a6.43,6.43,0,0,0-1.13,0L193.83,42l3.8,3.3c-.45,1-1.22.19-1.84.26C194.47,44.93,193.65,45.36,193.58,44.37Z"/><path d="M240.16,104.41a6.37,6.37,0,0,1-.76,1.24c-.66.55-1.74.83-1.57,1.9,0,.1-.55.41-.78.37s-.57-.4-.52-.58c.45-2,1.39-.88-.68-2.49C236.06,104.32,235.38,104.46,240.16,104.41Z"/><path d="M249.92,60.57c-4.92,1-3.48,1.12-6.58-.31,2.16-1.53.56-.7,4-.32C250.18,60.26,249.88,59.3,249.92,60.57Z"/><path d="M255.52,45.92c1.16-3.1.31-1.93,2.83-2.1a12.91,12.91,0,0,0,1.93-.39c-.67,1.52-.83,2.4-2.22,2.14A9.08,9.08,0,0,0,255.52,45.92Z"/><path d="M250,49.15c-1.09-1.57-1.13-1.06.13-2,1-.77.94-.72,1.94.1a8.84,8.84,0,0,0,1.87.86c-1.52,1.43-2.56.08-3.87-.1C250.27,49.24,250.33,49.05,250,49.15Z"/><path d="M212.51,51.42c-.56-.71-2.19,0-2-1.34,1,0,1.88,0,2.79.08,2.19.12,1.85,4-1.88,1.77Z"/><path d="M69.14,83.35c1,.26,1.78.47,1.5,1.36-.42,1.29-1.4,1.78-3.68,1.75Z"/><path d="M189.82,21.43c-.5-2.07-1.61-2.25.6-4.35.45-.43,1.08-.51,1.38-.06s.09,1.18-.07,1.23c-1.59.45-1.14,1.56-1.36,2.47C190.33,20.87,190.16,21,189.82,21.43Z"/><path d="M218,84.68l1.8-.37c1.52,2.51,1.2,1.74.89,2.83-1.28-.5-.9-.32-1.35-.74-.59.31-1,1.21-1.69.62C218,84.37,218,84.63,218,84.68Z"/><path d="M-1.64,138.1c.37,1.37.71,2.59-.94,3.48C-4.19,140.1-3.91,139-1.64,138.1Z"/><path d="M36.9,81.43c1-2.76,1-2.76,0-4.5l1.89.26,1.08-1.44c0,1.12.19,1.85-.72,2.54S39,81.14,36.9,81.43Z"/><path d="M197.52-6.21l-2.09-1.06,1.37-3c.34.3.86.6.8.73C197.14-8.48,198.27-7.55,197.52-6.21Z"/><path d="M103.36,9.25c.77-1.54,1-2.36,1.94-2.46.29,0,.94.63.79,1.39s-.34,1.24-.59,2.12C104.53,9.3,105.12,9.51,103.36,9.25Z"/><path d="M82,65c1,.72,2.74.55,3.45,1.93-.26.16-.56.48-.78.45C82.45,67.15,80.33,66.73,82,65Z"/><path d="M255.68,46.92c.38.09,3,.27,2.22,2.12-.3.68-1.42.89-1.69.41a20.87,20.87,0,0,1-1-2.09Z"/><path d="M138.24,129.61l-.88-1.58c1.07-1,1.5,0,2.21.21.3-1.16,1.35-1,2.47-1.2C141.35,128.71,139.63,128.88,138.24,129.61Z"/><path d="M225.92-4.69l.83,1.92-3.24.51C223.42-3.61,224.18-4.26,225.92-4.69Z"/><path d="M196,159l2.13-2c.82.62,1.41,1.29,1,2.32C198,160.29,197.12,158.66,196,159Z"/><path d="M231.29,160.64c-.68,1.18-1.54,1.41-3.58,1C228.72,159.76,228.72,159.61,231.29,160.64Z"/><path d="M151.49,137.74c-.22,1.06-1.59.71-2.11,1.45-1.36-.78-.69-1.76-.59-2.81C151.86,137.8,151.58,137.63,151.49,137.74Z"/><path d="M278.55,22.12l-.89,1.09-4.09-.39C273.89,21.31,277.56,22,278.55,22.12Z"/><path d="M174.41,143.68l2.42-.37c.33.67.65,1.31,1,2.14C176.13,145.39,175,145.07,174.41,143.68Z"/><path d="M172,168.05l3-1.59a5,5,0,0,1,.43,1.19c.1,1.38-1.18,1-2.93.77C172.35,168.41,172.31,168.35,172,168.05Z"/><path d="M259.84,52.58c0,.61,0,1.15,0,1.73-1.61.21-2.32-.76-3.33-1.24C256.65,52.53,256.12,52.68,259.84,52.58Z"/><path d="M150.24,41.74c.63.45,3.62,2,1.47,2.56-.63.15-1.29.21-1.82.29C150,43.67,150.1,42.88,150.24,41.74Z"/><path d="M184.92,98c-1.19-.2-2.32-.13-2.56-1.34,1-.4,1.93-.89,3.18-.21C185.35,97,185.15,97.48,184.92,98Z"/><path d="M75.21,73.07c-1.35-1.61-1.53-2.34-.93-2.87s1.17-.33,2.44.64C75.82,71.27,74.77,71.62,75.21,73.07Z"/><path d="M279.87,92.36c.3-1.06.61-2.13.93-3.25.47.12.81.15.81.21a7.91,7.91,0,0,1,0,2.33C281.47,92.28,280.92,92.85,279.87,92.36Z"/><path d="M215.49,56.3l2.74-.6c-1.48,1.16-.15,1.93-.44,3C215.42,57.88,216,58.39,215.49,56.3Z"/><path d="M206.07,64.05c-1.66,1.41-2.42-.13-3.86.48C206,58.34,202.05,63.9,206.07,64.05Z"/><path d="M270.54-22.2c.43-1.64.91-1.71,3.53-.54C274.1-21.57,273.57-21.86,270.54-22.2Z"/><path d="M276,85.28l3.3-1.47a1.25,1.25,0,0,1-.51,1.84C277.77,86.31,276.93,85.86,276,85.28Z"/><path d="M220.19,18.62l-3,1c-.16-.74-.34-1.52-.54-2.47Z"/><path d="M20.61,23.15c1.19-.17,2.24-.64,3.22.52-.55.35-1,.91-1.56.94C21.31,24.68,21.11,23.84,20.61,23.15Z"/><path d="M158.8,126.7c-2.13-1.1-2.42-2.39-1-3.8C158.14,124.13,158.43,125.25,158.8,126.7Z"/><path d="M54.34,150.68c3.12.21,3,2,2.38,2.39C55.86,153.54,55.52,152.54,54.34,150.68Z"/><path d="M130.14,28.06c.11-1.2.32-2.36-.54-3.34-.12-.14.31-.65.48-1,.28.24.73.45.79.73.18.78.12,1.6.27,2.38S131,27.83,130.14,28.06Z"/><path d="M155,136.06c.16.73.29,1.36.43,2-1.28-.84-2.77.29-3.95-.31C151.45,137.79,151.06,137.89,155,136.06Z"/><path d="M99.43,80.12l-1.26,3.41C96.6,82.14,96.85,81.15,99.43,80.12Z"/><path d="M213.62,78l1.24-.47c.79,1.85.78,2-.43,3.26A7.34,7.34,0,0,0,213.62,78Z"/><path d="M263.17,60.89c.31.24.66.73.92.69,1.65-.24,1.75.69,1.79,1.66C263.89,63.25,263.62,63.05,263.17,60.89Z"/><path d="M207.22-4.94c.47-.95,0-2,1.25-2.58C209.47-5.26,209.3-4.83,207.22-4.94Z"/><path d="M240.89,28.39c-.41-1.21-.15-1.87,1.18-2.09l1.6,2C242.56,29.31,242,27.15,240.89,28.39Z"/><path d="M138.33,120.83c1.89-.15,1.34,1.71,1.17,3.51C137.94,124.44,138.29,123.88,138.33,120.83Z"/><path d="M249.55,73c-1.11.6-2.22,1.22-3.79.57l2.4-1.49C249.69,73.14,249.53,73.05,249.55,73Z"/><path d="M195.48,96.6c-.5,1-.93,1.77-1.38,2.62-.95-.69-1-1.13-.4-2.23C194,96.42,194,96.42,195.48,96.6Z"/><path d="M192.85,11.82c.62-.53,1.11-.89.52-1.87,0,0-.07.08.75-.5l1.67,2.49C194.57,11.86,193.69,12.4,192.85,11.82Z"/><path d="M262.83,43.3c.33.38.66.75,1.05,1.21l-2,1.19C261.2,44.35,261.2,44.35,262.83,43.3Z"/><path d="M287.82,114.28c.81,1.78.31,1.68-2.61,1.79C285,115.57,284.64,115.91,287.82,114.28Z"/><path d="M194.81,52.92l.91,1.53c-1.14,1.5-1.14,1.5-2.3.94C193.83,54.65,194.25,53.91,194.81,52.92Z"/><path d="M196,101.59l-1.34-1.28a1.83,1.83,0,0,1,2.58-.49Z"/><path d="M214.65-7.74C213.43-6.4,212.23-6.66,211-7,212.09-7.54,213.09-8.32,214.65-7.74Z"/><path d="M270-20.87l1.74-.78.94,1.83C269.15-20.3,269.64-20,270-20.87Z"/><path d="M81.91,162.32c.63,2,.48,2.16-1.94,2.44.36-.47.91-.87.88-1.19C80.77,162.87,81.19,162.66,81.91,162.32Z"/><path d="M53.39,93.41c0-1.79,3-1.89,2.26.23Z"/><path d="M183.51,54.78c1.7.24,1.7.24,1.83,1.64C183.81,56.32,183.78,56.29,183.51,54.78Z"/><path d="M157.12,128.31c1.38.76,3.11-.49,3.95,1.4-1-.33-1.71-.78-2.64-.11C158,129.92,157.4,129.37,157.12,128.31Z"/><path d="M219.88,81.16c1,0,2.12-1,3.28.27C221.8,81.64,220.73,82.23,219.88,81.16Z"/><path d="M234.18,26c0,.76-.05,1.09-.08,1.63-2.1-.45-1.53-.21-1.93-1.08Z"/><path d="M57.08,86.39c-.46-1.84,0-2.32,2.11-2.52C59.15,83.83,59.4,83.56,57.08,86.39Z"/><path d="M162.79,157.54c1.46-.69,2.15-.12,2.35,1.67C164.63,159.54,165.06,159.75,162.79,157.54Z"/><path d="M269-13.29c-1.27-1.93-1.29-1.39-.18-2.46C270-15.08,270.12-14.34,269-13.29Z"/><path d="M260.07,69.91c.24-.82.43-1.47.65-2.24C262.17,68.73,262,69.17,260.07,69.91Z"/><path d="M197,51.46c-.59.61.18.43-2.84.74A1.19,1.19,0,0,1,194,52c.35-1.14.79-1.51,1.9-1.56,0,0,.11-.26-.35.92C196.56,51,196.23,51,197,51.46Z"/><path d="M182,32.71l-1.43.64c-.71-.89-.71-.89-.17-2Z"/><path d="M143.08,142.72c-.58-1.42,1-1.37,1.62-1.91C144.81,141.76,144.69,142.58,143.08,142.72Z"/><path d="M267.43-16.21l-2-.38c.35-1-.06-.76,1.33-1.28C266.94-17.41,267.12-16.95,267.43-16.21Z"/><path d="M217.21,50.26l1.88.25c-.26,1-1.09,1-2,1.3C217.13,51.26,217.17,50.85,217.21,50.26Z"/><path d="M-6.89,178.48l1-1.49,1.22.6C-5,178.75-5.76,178.83-6.89,178.48Z"/><path d="M200.61-2.9c1.09.36,1.64.87,1.41,1.82C200.54-1.1,200.54-1.1,200.61-2.9Z"/><path d="M259.92,36.41c-.11-.7-.19-1.25-.29-1.9,1-.13,1.42.26,1.58.94C261.31,35.85,261.23,35.88,259.92,36.41Z"/><path d="M255.42,76.55l-1.76-.79C254.54,74.47,257,75.31,255.42,76.55Z"/><path d="M145.16,124.66a6.27,6.27,0,0,1,.82-1.33,1.11,1.11,0,0,1,1-.12c.2.16.29.73.14.84a10.07,10.07,0,0,1-1.67.85Z"/><path d="M210,63.26l-2.55.4c.3-.65.49-1,.78-1.65Z"/><path d="M202,11c0,.84,0,1.42.07,2-.83,0-.34.24-1.84-1.13Z"/><path d="M199.56,7.46c0-.55.05-.94.07-1.38,1.49-.39,1.36,1,2.1,1.35Z"/><path d="M262.49,67.29c-1.07-.74-.28-1.23.14-1.94l1.16.77Z"/><path d="M276,83.14c-.83.6-1.41,1.08-2.34.65a1.16,1.16,0,0,1,1.2-1.22C275.14,82.56,275.48,82.89,276,83.14Z"/><path d="M272.55,75.8c2.35-.27,2.33,1.13,1.8,1.42s-1-.36-1.83-1.44Z"/><path d="M183,9.23c-.58-.83-2.57-.11-2.44-1.69C181.12,8.46,183.07,7.69,183,9.23Z"/><path d="M217.53,22.52c.82.76,1.81,1.09,1,2.25C217.53,24.31,217.42,23.64,217.53,22.52Z"/><path d="M207.44,46.73l1.38,1.15-1.65,1C207,46.73,206.87,47.08,207.44,46.73Z"/><path d="M143.05,44.89l-2.41,1.7C140.57,45.39,141,45.09,143.05,44.89Z"/><path d="M227.72,75.91l-1.47-.77c.22-.39.42-.76.64-1.18C227.94,74.34,227.61,75,227.72,75.91Z"/><path d="M215,62.94l-1.41-1.6C214.92,61,215.25,61.24,215,62.94Z"/><path d="M214.62,18.5l.5-1.84,1.7,1.49Z"/><path d="M248.83,12.06c-1.39-.09-1.72-.59-1.46-1.59C248.45,10.6,249,11,248.83,12.06Z"/><path d="M79.87,49.64c-.28-1-.43-1.59.61-2.11C81,48.35,81,49,79.87,49.64Z"/><path d="M184.87,35.35l-1.71.81c-.68-.37-.68-.78-.19-1.16S184.19,34.64,184.87,35.35Z"/><path d="M259.46,56.89c-.72,1.15-2,.85-3,1.42C256.67,57,256.21,57.27,259.46,56.89Z"/><path d="M79.7,71.19c-1.12.44-1.12.44-2-.66C78.92,70.21,78.92,70.21,79.7,71.19Z"/><path d="M234.17,157.67c-1.68-.3-1.37,1.13-2.42,2,0-1,.05-1.51.06-2.1C234.26,157.19,233.88,157.13,234.17,157.67Z"/><path d="M179.5,58.13l-2.4-.45A1.24,1.24,0,0,1,179.5,58.13Z"/><path d="M-11.46,155.6c.13-.18.17-.33.26-.36.63-.26,1.3-.48,1.78.08S-10.41,157.05-11.46,155.6Z"/><path d="M197.09,154.36c-.71,1.15-.07.68-2.16,1.95l-.73-.58C197.34,154.27,197.13,154.4,197.09,154.36Z"/><path d="M61.54,163.07c.49,1.56.14,2-1.48,2.24A23.39,23.39,0,0,0,61.54,163.07Z"/><path d="M203.21-5c.74.41,2.29-.32,2,1.28C204.43-4,203.28-3.76,203.21-5Z"/><path d="M181.79,18.55l1.35,1.25c-.32.57-.75.73-1.27.4S181.24,19.32,181.79,18.55Z"/><path d="M191.47,160.81c-.68-1.47-.61-1.59,1.39-2.11Z"/><path d="M72.6,79.1c1.61-.78,1.65-.76,1.71.69Z"/><path d="M194.27,47.48C193,47.69,192.55,47,192,46,194.61,46.13,194,47.63,194.27,47.48Z"/><path d="M214.52,76l2.37-1c-.11.39-.08.81-.29,1A1.61,1.61,0,0,1,214.52,76Z"/><path d="M192.42,162.78l-2.21.35c.47-.79.94-1.31,1.88-1.12C192.25,162.05,192.29,162.45,192.42,162.78Z"/><path d="M178.88,140.88c.62-1.33.62-1.33,1.87-1C180.19,140.34,180.11,141.3,178.88,140.88Z"/><path d="M178.11,126.15l-1.16-.37c0-.66.26-1,.92-.9C178.69,125,178.59,125.53,178.11,126.15Z"/><path d="M193.54,57.57c-.81-.39-1.55-.54-1.76-.91s.25-.84.95-.82Z"/><path d="M195.24,48.78h-2.3l1.33-1.29,0,0C195.32,48.93,195.2,48.83,195.24,48.78Z"/><path d="M235.71,67.1c-.19.59-.32,1-.46,1.43-.61-.12-.41.21-.76-1.3Z"/><path d="M220.31,59.36c.79.4,1.4.89.86,2C219.68,59.38,219.74,59.75,220.31,59.36Z"/><path d="M40.88,134.4c-1.79-.54-.41-1.86.13-1.54C41.81,133.33,41.3,133.81,40.88,134.4Z"/><path d="M274.6,77.56c-.74,1.6-.77,1.62-2.52,1.44Z"/><path d="M265.72,60.43C264,60,264,60,264.65,58.53,265,59.15,265.29,59.67,265.72,60.43Z"/><path d="M186.75,56.45c1.47-1,1.47-1,2.52.35Z"/><path d="M204.29,16.41c1.06-1.21,1.06-1.21,2.13-.17Z"/><path d="M194.67,94c1.47.09,1.47.09.71,1.74C195.1,95,194.9,94.54,194.67,94Z"/><path d="M157.28,41.22c-.84-.47-1.12-.89-.4-1.59C157.62,40,157.91,40.37,157.28,41.22Z"/><path d="M75.61,75.76l.77-1.31c.29.21.58.32.64.49C77.3,75.81,76.53,75.84,75.61,75.76Z"/><path d="M281.22,22.85c-1.17-.5-.53-1.14-.59-1.89C281.84,21.44,281.7,22,281.22,22.85Z"/><path d="M74.93,75c-.7,1.52-.37,1.34-1.39,1C74.41,74.48,74.1,74.66,74.93,75Z"/><path d="M169.55,100.33c-1.11-1.22-.42-1.81.23-2.4C170.3,98.14,170.29,97.75,169.55,100.33Z"/><path d="M189.28,118.25c-.32,1-.68,1.52-1.79,1.25C187.4,118.5,188.07,118.31,189.28,118.25Z"/><path d="M259.43,72.52l-1.92.82C257.79,72.13,258.15,71.63,259.43,72.52Z"/><path d="M147.75,110.91c-.69-.84.38-1.29.54-2.06C149.9,110.38,147.43,110.76,147.75,110.91Z"/><path d="M183.78,3.24c-1-.77-1.5-1.3-.69-2.2C183.28,1.63,183.46,2.23,183.78,3.24Z"/><path d="M219.14,71.81l1.51,1.72C219.29,73.47,219.29,73.47,219.14,71.81Z"/><path d="M219.79.48c-1.14.62-1.57.09-2.09-.58A1.68,1.68,0,0,1,219.79.48Z"/><path d="M58.44,25.18c.75-.52,1.23-.3,1.81.73C58,25.62,58.32,25.82,58.44,25.18Z"/><path d="M200.62,156.93c-1.41-1.18-1.41-1.18-.41-1.92C201,155.42,200.67,156,200.62,156.93Z"/><path d="M223.86,55.23c.32.92.41,1.54-.71,2.05C223,56.53,222.78,55.91,223.86,55.23Z"/><path d="M102.75,5c-.13-1.08-.38-1.8.62-2.06C104,3.27,104,2.92,102.75,5Z"/><path d="M194.83,160.42c-.2,1.16-.77,1.16-1.62.68Z"/><path d="M224.64,84.47l1.5-.91c.15.08.34.14.33.19C226.41,84.62,226,85.09,224.64,84.47Z"/><path d="M96.44,176.09l1.81,1.33C96.74,177.65,96.74,177.65,96.44,176.09Z"/><path d="M264.7-16.86c-.85-.46-1.24-.9-.81-1.79C264.89-18.31,265-17.75,264.7-16.86Z"/><path d="M167.09,134.07c-.63-.5-1-.66-1.08-.91s.4-.57.55-.55a1.31,1.31,0,0,1,.86.47C167.52,133.26,167.26,133.6,167.09,134.07Z"/><path d="M223.77,75.2c-1.36-1-1.36-1,.17-1.79C223.88,74.05,223.83,74.54,223.77,75.2Z"/><path d="M206.86,76.41c1,1,1.09.6.1,1.56C206.22,77.36,206.16,77.79,206.86,76.41Z"/><path d="M81.14,152.91l.89,1c-.37.29.07.32-2-.18Z"/><path d="M64.33,85.11c.23.65.38,1,.66,1.8a7,7,0,0,1-1.37-.68C63.05,85.66,63.72,85.51,64.33,85.11Z"/><path d="M286.44,60.44c-1.4-.41-1.81-.85-1.5-1.6C285.64,58.54,285.29,58.29,286.44,60.44Z"/><path d="M69,55.41c-1.7.65-1.7.65-1.85-.76Z"/><path d="M59.19,83.87C60,83.22,60,83,61,83.19c.08,0,.16.4.11.43a2.81,2.81,0,0,1-1,.43C59.78,84.09,59.09,83.78,59.19,83.87Z"/><path d="M217.76,40.85c-.21,1.25-1.06,1.06-1.75,1.15C215.71,41.53,215.38,41.78,217.76,40.85Z"/><path d="M65.81,8.85c.84.65.85.36-.22,1.3C65,9.61,64.89,10,65.81,8.85Z"/><path d="M249.35,40.76l-1.74,1.58C247.59,41.26,247.77,40.75,249.35,40.76Z"/><path d="M200.61,158.79c1.41-.52,1.56.11,1.71,1.14Z"/><path d="M189.52,156.75c-.07.6,0,1.3-1.51.95C189.34,156.27,189,156.42,189.52,156.75Z"/><path d="M252.66,57.35c.9.59.6.17,1.16,1.44C252.6,58.84,252.53,58.33,252.66,57.35Z"/><path d="M202.69,52.08c.31.58.48.9.68,1.26C202.16,53.45,202.16,53.45,202.69,52.08Z"/><path d="M221.39-4.24c-1.13.74-1.6.41-1.91-.4Z"/><path d="M216.58,44.64c-.82.77-1.53,1-2.1,0Z"/><path d="M68.89,80.7l1.44.79-1.8,1C68.68,81.76,68.76,81.33,68.89,80.7Z"/><path d="M50.84,152.72c.64-1.2,1.29-.77,1.94-.31Z"/><path d="M186.84,40.47c.3,1.9.6,1.75-.83.8C187,40.4,186.9,40.5,186.84,40.47Z"/><path d="M189.76,40.39c1,.12,1.07.65.78,1.46C189.46,41.5,190,40.1,189.76,40.39Z"/><path d="M165.88,52.2c.66,1-.18,1.28-.46,1.75C164.73,53.67,164.73,54,165.88,52.2Z"/><path d="M249.54,73c1.78-1.2,1.43-1.11,1.74-.71-.46.42-.66,1.25-1.73.68Z"/><path d="M237.54,140.45l.63-1.5C238.82,139.61,238.82,139.61,237.54,140.45Z"/><path d="M224.89,43.7l-1.28-.92C224.36,42.65,225.21,42.37,224.89,43.7Z"/><path d="M175.24,164.87c-.44-1.06-.58-.83.47-1.06C175.75,165,175.88,164.76,175.24,164.87Z"/><path d="M54.52,90.56c-1.4.55-1.69-.68-1.19-.8C54.06,89.59,54.39,89.91,54.52,90.56Z"/><path d="M206.44,13.22l1.38,1.24-1.57.15Z"/><path d="M268.05,25.89a9.75,9.75,0,0,1-.49-.9,1.7,1.7,0,0,1,.47-.22,7.7,7.7,0,0,1,.66.75Z"/><path d="M144.93,44.05l-.67-1.44,1.59.19C145.53,43.24,145.33,43.52,144.93,44.05Z"/><path d="M198,56.89c1.2-.31,1.38.07,1.41.71C198.58,57.67,199,57.9,198,56.89Z"/><path d="M266.5,67.47c-.37-.24-.76-.39-.76-.54a.87.87,0,0,1,.49-.65c.23-.07.56.13.85.21Z"/><path d="M256.51,55.93l-1.67-.82,2.18-.22C256.39,56.05,256.46,55.89,256.51,55.93Z"/><path d="M206.85-10.35c2.05-.12,1.7-.21,1.72.27C206.55-9.91,206.87-9.8,206.85-10.35Z"/><path d="M270-20.87c-.34.82,0,.66-1.68.59C268.86-21.13,269.38-21.15,270-20.87Z"/><path d="M216.69,1.11c.83.78.7,1.16.13,1.43-.15.07-.44-.09-.66-.14C216.3,2.05,216.44,1.7,216.69,1.11Z"/><path d="M79.1,91.4c-.86.64-.51.6-1.31.24C78.52,90.85,78.2,91,79.1,91.4Z"/><path d="M190.16,77.2c-.35-.24-.65-.33-.68-.48a.66.66,0,0,1,.27-.57c.14-.07.62,0,.63.14A2.94,2.94,0,0,1,190.16,77.2Z"/><path d="M272,77.12c-.21-.1-.55-.17-.59-.32-.19-.68.63-.62,1-.91S272.3,76.45,272,77.12Z"/><path d="M167.83-1.68c-1.08.76-.7.73-1.54.4C166.4-1.76,166.09-1.65,167.83-1.68Z"/><path d="M180,104.15c-1.09.57-.62.65-1.83,0C178.7,103.58,178.21,103.56,180,104.15Z"/><path d="M135.28,111.75l-1.32-.52C134.88,110.68,135.24,110.9,135.28,111.75Z"/><path d="M60.7,124l-.45,1.41c-.23-.1-.44-.13-.51-.23C59.34,124.57,59.64,124.23,60.7,124Z"/><path d="M143.26,114.12C144,113,144,113,145,113.6,144.28,114.46,142.8,113.94,143.26,114.12Z"/><path d="M131.64,132.43c-.4.41-.55,1-1.28.21-.05,0,.23-.48.36-.49A3.09,3.09,0,0,1,131.64,132.43Z"/><path d="M158.06-.47c.63,0,.54-.19.5.92C157.78.46,157.92.64,158.06-.47Z"/><path d="M157.4,135.68c-.34,1-.86,1.06-1.42,1C155.67,136.12,155.45,136.37,157.4,135.68Z"/><path d="M84.4,152.87c-1.06.47-.69.6-1.49-.16C83.63,152.31,83.24,152.23,84.4,152.87Z"/><path d="M186.16,138.14c.85-.61,1.25-.57,1.63.37Z"/><path d="M78.38,156.5l-1.92.3C77.07,155.76,77.67,156.11,78.38,156.5Z"/><path d="M189,161.36c.18,1.19.35,1-.59,1.09C188.27,161.26,188.11,161.48,189,161.36Z"/><path d="M256.88,151.29c-.66.66-.31.68-1.32.25C256.08,150.72,255.79,150.81,256.88,151.29Z"/><path d="M176.54,165.65l1.74.76C177,166.85,177,166.85,176.54,165.65Z"/><path d="M32.79,190.48c.59.05,1.29-.21,2,.71C32.36,190.81,32.71,191,32.79,190.48Z"/><path d="M228.42-3.94c-1.21,0-1,.06-.94-.52C228.7-4.43,228.52-4.56,228.42-3.94Z"/><path d="M206.94,11.08c-1.36,0-1.33-.46-.9-1.28Z"/><path d="M183.62,32.19c1,.66.5,1-.4,1.37C183,32.39,183,32.76,183.62,32.19Z"/><path d="M148.57,39.26c-1.32.63-1.54.2-1.76-.7Z"/><path d="M185.83,43.81l-1.39,1.09C184.45,43.81,185,43.67,185.83,43.81Z"/><path d="M165.34,136.05l.94-1.17C166.49,135.78,166.49,135.78,165.34,136.05Z"/><path d="M83,71.86c-.93.27-1.33.08-1.46-.62C82.39,70.94,82.73,71.25,83,71.86Z"/><path d="M196,56.54c-.89.54-.89.54-1.32-.31Z"/><path d="M155.64,71.77c-.35.11-.71.23-1.07.31,0,0-.21-.37-.19-.38.32-.17.66-.32,1-.47Z"/><path d="M256.47,55.9c.57,2.14.39,1.73-1.45.26C256.73,55.9,256.53,55.94,256.47,55.9Z"/><path d="M246.07,62.24c.07.51.15,1,.26,1.69C245.19,63.41,246,62.79,246.07,62.24Z"/><path d="M250.7,149.82l-1.9.3C249.65,149.21,250.18,149.62,250.7,149.82Z"/><path d="M169.22,58.79c.41-.77,0-.62,1.57-.58C170.76,58.8,171.07,58.66,169.22,58.79Z"/><path d="M173,42.27c-1.26.06-1.18.31-.29-1,.38.08.29-.1.26,1Z"/><path d="M130.18,18.38a3.45,3.45,0,0,1-.82.4.59.59,0,0,1-.49-.36c0-.14.15-.42.32-.5s.41.06.63.1Z"/><path d="M87.77,57.13c-.46-1-.46-.75.13-1C88.35,57.15,88.4,56.94,87.77,57.13Z"/><path d="M246.77,144.25c-1.14.55-.73.61-1.68.07C245.72,143.67,245.31,143.77,246.77,144.25Z"/><path d="M82.54,23.72l1.1-.09a1.81,1.81,0,0,1,0,.31C82.35,24.21,82.56,24.17,82.54,23.72Z"/><path d="M185.64,2.75c0,.58.28.44-1.13.67C184.48,2.66,184.25,2.83,185.64,2.75Z"/><path d="M197,51.46c-.76-.48-.53-.26-1.07-1,0,0-.22,0,1.28,0Z"/><path d="M178.38,44.7c1.46-.39,1.19-.43,1.36,0C178.33,45.25,178.62,45.28,178.38,44.7Z"/><path d="M198.57,55.29c1.2.84,1,.61.87,1C198,56.27,198.18,56.53,198.57,55.29Z"/><path d="M190.11,34.51c.43-1.09.18-1,1-.71C190.48,34.86,190.72,34.72,190.11,34.51Z"/><path d="M22.2,114.59c.24.22.54.44.51.48-.67.85-.76.47-1.17.23Z"/><path d="M70.29,165.69c-.31.22-.56.47-.67.44a1,1,0,0,1-.58-.48c-.05-.11.27-.34.43-.51Z"/><path d="M189.85,58.72c0,1.21.09.83-.64,1.37C188.61,59.37,189,59.06,189.85,58.72Z"/><path d="M183.56,133.78c.83.56.84.28.13,1C183.07,134.32,183.12,134.59,183.56,133.78Z"/><path d="M159.48,136.18c1.33-.79,1-.77,1.43-.24C159.57,136.7,159.87,136.68,159.48,136.18Z"/><path d="M180.27,100c-.35-.09-.82-.09-1-.3s.25-.55.76-.41C180.68,99.52,180.59,99.37,180.27,100Z"/><path d="M205.39,20.15c-.67,1-.67,1-1.84.45C205.63,20.13,205.45,20.19,205.39,20.15Z"/><path d="M183,23.29c-.5.57-.85.95-1.45,1.62C181.44,23.82,181.75,23.42,183,23.29Z"/><path d="M206.5,20c-.25.32,0,.27-1.11.14C205.7,19.36,205,19,206.5,20Z"/><path d="M190.31,21.87c.4.42.53.2-.47,1C189.4,22.52,189.33,22.75,190.31,21.87Z"/><path d="M295.28,111.88c-.58.38-.69.76-1.28-.11,0,0,.36-.41.46-.39A3.59,3.59,0,0,1,295.28,111.88Z"/><path d="M183.21,22.68c.18-.93,0-.77.85-.61C183.56,22.93,183.75,22.82,183.21,22.68Z"/><path d="M199.08,35.31c.61,1,.45.56.44,1.73C198.22,35.72,198.27,36.1,199.08,35.31Z"/><path d="M32.16,132.57c-.77.64-.42.67-1.35.18C31.51,132.17,31.19,132.28,32.16,132.57Z"/><path d="M54.73,88c.06.57.29.45-.88.63C53.74,88.12,53.57,88.27,54.73,88Z"/><path d="M55.21,147.68c-1.07.95-.7.8-1.43.43C54.4,147.36,54.07,147.54,55.21,147.68Z"/><path d="M198,54c.33.17.62.24.7.39s-.17.44-.33.48a.66.66,0,0,1-.59-.21C197.7,54.56,197.88,54.32,198,54Z"/><path d="M139.32,53.5c-.89.51-.58.57-1.3,0C138.7,53,138.36,53,139.32,53.5Z"/><path d="M156.9,115.81c.74-1.4.49-1.24,1-1C157,116.14,157.27,116,156.9,115.81Z"/><path d="M145.89,171.17c-.73-.65-.92-1-.44-1.44C146.14,169.81,146,169.52,145.89,171.17Z"/><path d="M82.93,86.09l-.78,1c-.18-.13-.33-.19-.34-.27C81.68,86.17,81.91,85.84,82.93,86.09Z"/><path d="M210.1-7.56c-.91-.66-.82-.52-.68-.8.67.1.46-.09.93.62Z"/><path d="M64.87,162.78c.35-.09.69-.19,1-.26,0,0,.16.24.14.25-.29.2-.59.38-.89.56Z"/><path d="M146.7,138.6c1,.77.9.58.51.91C146.29,138.68,146.38,138.88,146.7,138.6Z"/><path d="M265.63,45.07c-1.25.2-1,.23-1.13,0C265.74,44.55,265.5,44.52,265.63,45.07Z"/><path d="M92.43,169.33c.28-.2.56-.39.85-.57a1.18,1.18,0,0,1,.25.19C92.71,169.86,92.87,169.74,92.43,169.33Z"/><path d="M174.29,165.18c.88.41.85.14.3,1C173.78,165.73,173.94,165.94,174.29,165.18Z"/><path d="M170.22,166.75c.19-.24.37-.49.59-.72a1.44,1.44,0,0,1,.31.13C170.63,167.17,170.75,167,170.22,166.75Z"/><path d="M84.45,53.84c.13-.11.24-.3.38-.32a2.1,2.1,0,0,1,1.22.14C84.31,54.18,84.62,54.19,84.45,53.84Z"/><path d="M153.62,31.48c-.26-.17-.52-.32-.77-.5a1.57,1.57,0,0,1,.19-.26C154.13,31.17,154,31.08,153.62,31.48Z"/><path d="M185,25.2c.59-.29.39-.41.93.39C185.39,25.94,185.6,26,185,25.2Z"/><path d="M196.23,164.15c-1.08.52-.86.51-1.07.16C196.22,163.81,196,163.8,196.23,164.15Z"/><path d="M178.9,24.58c.06-.31.1-.58.17-.94C179.58,24.16,179.58,24.16,178.9,24.58Z"/><path d="M145.63,26.51c-.76.56-.44.6-1.26.16C144.93,26.09,144.6,26.12,145.63,26.51Z"/><path d="M153.24,54.69c.36.4.35.12.14,1C152.38,55.23,152.76,55.1,153.24,54.69Z"/><path d="M190.1,68.89l.29.85a2,2,0,0,1-.35.09C189.49,68.86,189.6,69,190.1,68.89Z"/><path d="M236.23,6c-.79.7-.45.7-1.33.35C235.42,5.75,235.08,5.84,236.23,6Z"/><path d="M80.39,87.77c-.91.42-.62.38-1.13.08C80.1,87.21,79.83,87.27,80.39,87.77Z"/><path d="M195.22,48.8l2.16-.53C196.13,49.73,195.34,48.64,195.22,48.8Z"/><path d="M238.21-17.77c.88.64.81.37.35,1C238-17,238.1-16.78,238.21-17.77Z"/><path d="M253.8,63.06c.26.42,1.1.79.11,1.38C253,63.76,254,63.11,253.8,63.06Z"/><path d="M124.64,14.66c-.9.38-.62.49-1.21-.13C124.07,14.11,123.76,14.05,124.64,14.66Z"/><path d="M178.31,4.43l-.83-.06a3.17,3.17,0,0,1,.06-.32C178.54,4.08,178.37,4.09,178.31,4.43Z"/><path d="M136.08,10.88c-.5.5-.25.52-.94.07C135.61,10.53,135.37,10.54,136.08,10.88Z"/><path d="M110.1,13.36c-.84.61-.49.67-1.38.11C109.41,13,109.05,13,110.1,13.36Z"/><path d="M85.66,16.28c.61.87.58.56,0,1.15C85,16.8,85.12,17.08,85.66,16.28Z"/><path d="M233.19,72.84c-1-.84-.91-.51-.57-1.26C233.1,71.59,233,71.38,233.19,72.84Z"/><path d="M229.73,73.35c-.29-.2-.57-.3-.59-.43a.59.59,0,0,1,.32-.49.69.69,0,0,1,.58.23C230.09,72.8,229.89,73,229.73,73.35Z"/><path d="M-7.79,110c0,.69,0,1.1-.08,1.79C-8.63,111.16-8.7,110.75-7.79,110Z"/><path d="M223.84,78.7c1.11-.17.9-.21,1,.1C223.75,79.08,224,79.12,223.84,78.7Z"/><path d="M146.21,92.34c-.18-.14-.41-.24-.4-.33a.57.57,0,0,1,.3-.39.48.48,0,0,1,.42.23C146.56,92,146.36,92.12,146.21,92.34Z"/><path d="M205.94,82.74a5.9,5.9,0,0,1-.84.52c-.06,0-.37-.26-.35-.27C205.44,82.19,205.34,82.42,205.94,82.74Z"/><path d="M240.09,78.07c-.05,1.24.09,1-.55,1.05C239.55,77.82,239.4,78,240.09,78.07Z"/><path d="M196.34,85.9l-.56-.31a3.56,3.56,0,0,1,.46-.49.52.52,0,0,1,.31.1A4.28,4.28,0,0,1,196.34,85.9Z"/><path d="M107.65,10.4c-1.09-.23-1.16-.62-.94-1.14C107.33,9.08,107.11,8.86,107.65,10.4Z"/><path d="M278.08,82.71c-1.07-.82-1-.61-.72-.95,1,.37.73.21,1,.8Z"/><path d="M142.67,50a2.58,2.58,0,0,1-.56.46c-.05,0-.76-.2,0-.73C142.13,49.66,142.38,49.83,142.67,50Z"/><path d="M193.23,52.94c0-.53-.07-.83-.12-1.33C194.48,52.23,194.39,52,193.23,52.94Z"/><path d="M195.79,45.6c.07.62-.31.8-1.18.7C195.57,45.25,195.31,45.36,195.79,45.6Z"/><path d="M131.17,112.1c-1,.75-.77.71-1.14.33C131.07,111.7,130.83,111.75,131.17,112.1Z"/><path d="M41.16,128c-.87-.58-.87-.3-.37-1.05C41.6,127.38,41.43,127.15,41.16,128Z"/><path d="M177.84,55.55c-.81.67-.49.71-1.25.23C177,55.31,176.68,55.36,177.84,55.55Z"/><path d="M173,42.29c1.22.51.36,1.13,0,.93C172.1,42.82,173.28,42.1,173,42.29Z"/><path d="M64.6,60.42c.05-1.3,0-1.07.43-1.12C65.23,60.6,65.35,60.37,64.6,60.42Z"/><path d="M162.24,130.65c1.33-.29,1.09-.35,1.22.08C162.06,131.14,162.31,131.18,162.24,130.65Z"/><path d="M2.12,69.32c.38-.23.88-.83,1.12,0,0,.09-.25.36-.35.34A2.71,2.71,0,0,1,2.12,69.32Z"/><path d="M4.11,24.46c-1,.54-1.3.36-1.45-.58Z"/><path d="M142,145.7c-1.46.93-1.19.86-1.53.62C141,145.48,140.66,145.71,142,145.7Z"/><path d="M257.65,17.67c.1-1,0-.84.45-.81C257.93,17.85,258,17.69,257.65,17.67Z"/><path d="M190.87,27.82l-.58.47c-.33-.35-.69-.36.17-.84C190.49,27.43,190.68,27.64,190.87,27.82Z"/><path d="M203.81,59.06l1.5-.47C205,59.3,205,59.3,203.81,59.06Z"/><path d="M214.58,21c0,.24,0,.49,0,.73a1,1,0,0,1-.3,0C214,21,214.08,21.13,214.58,21Z"/><path d="M149.1,29.92l.5.37a2.64,2.64,0,0,1-.51.44c-.07,0-.42-.18-.4-.22A2.76,2.76,0,0,1,149.1,29.92Z"/><path d="M163.67,66.87c-.82.48-.63.44-.88.14C163.63,66.54,163.44,66.56,163.67,66.87Z"/><path d="M66.18,84.91c-.65.37-.38.45-1.05-.12C65.89,84.51,65.62,84.53,66.18,84.91Z"/><path d="M49,142.89a2.36,2.36,0,0,1,.48.45s-.26.33-.33.32a2.68,2.68,0,0,1-.57-.32Z"/><path d="M147.72,110.89c.15.42.43.86-.46,1.14C146.87,111.28,147.88,111,147.72,110.89Z"/><path d="M139.47,130.46c-.92.49-.62.5-1.17,0C139.17,130,138.85,130.05,139.47,130.46Z"/><path d="M129.35,133c-.18.18-.3.39-.43.4a.51.51,0,0,1-.41-.26c0-.09.18-.32.31-.35S129.13,132.87,129.35,133Z"/><path d="M243.29,73.33c.52.74.48.47.23,1C242.91,74.1,243,74.35,243.29,73.33Z"/><path d="M266.85,70.51c-.39-.15-.37,0-.12-.84C267.15,69.76,267.11,69.59,266.85,70.51Z"/><path d="M84,145.89l.47.31c-.11.12-.22.32-.33.32a.51.51,0,0,1-.41-.23C83.72,146.22,83.91,146.05,84,145.89Z"/><path d="M261.78,31.24c-.53.5-.3.47-.9.21C261.3,30.91,261.09,31,261.78,31.24Z"/><path d="M247.13,71.42c.21-.82.06-.53.74-1,0,.94.07.65-.42,1.11Z"/><path d="M290,118.26c-.57-.32-.57-.13-.27-.7C290.26,117.8,290.18,117.62,290,118.26Z"/><path d="M83.46,14.34l.53.23a1.77,1.77,0,0,1-.41.41s-.33-.12-.37-.23S83.35,14.5,83.46,14.34Z"/><path d="M163.54,137.78c-.13.88,0,.75-.57.67C163.28,137.61,163.13,137.72,163.54,137.78Z"/><path d="M55.11,127.13c1.25-.13,1-.18,1.07.17C55,127.49,55.15,127.57,55.11,127.13Z"/><path d="M143.22,114.1c.29.28.45.58-.1.78-.15.05-.39-.09-.58-.14C143.37,114,143.28,114.13,143.22,114.1Z"/><path d="M149,106.31c-.34.55-.1.53-.86.25C148.52,106.09,148.29,106.16,149,106.31Z"/><path d="M55,99.88c-.67-.29-.66-.11-.16-.72C55.43,99.52,55.33,99.36,55,99.88Z"/><path d="M91,158.33c-.78-.54-.7-.31-.23-.91C91.47,157.94,91.35,157.71,91,158.33Z"/><path d="M173.1,144.73c.16-.16.31-.33.49-.48a.81.81,0,0,1,.27.16C173.51,145.08,173.54,145,173.1,144.73Z"/><path d="M238.59,136.89c-.47.87-.3.77-.7.64C238.26,136.68,238.1,136.8,238.59,136.89Z"/><path d="M172.67,57.84c-.77.47-.56.45-.91,0C172.53,57.42,172.33,57.41,172.67,57.84Z"/><path d="M176.78,149.17c-.8-.6-.64-.39-.47-.78C177.14,149.05,177.09,148.88,176.78,149.17Z"/><path d="M229.16,143.67l.44.61C228.88,144.13,229,144.26,229.16,143.67Z"/><path d="M65.44,24.47c-.56-.52-.61-.28,0-.89C65.87,23.91,65.92,23.67,65.44,24.47Z"/><path d="M100.69,5.32l.35.42a1.94,1.94,0,0,1-.47.21c-.08,0-.27-.15-.26-.18A3.13,3.13,0,0,1,100.69,5.32Z"/><path d="M223.85,49.7c.25-.11.5-.24.75-.34a.72.72,0,0,1,.18.25C224,50.22,224.12,50.11,223.85,49.7Z"/><path d="M243.31,143.66a.78.78,0,0,1-.14.27c-.32,0-.63-.11-.93-.17C242.52,143.26,242.34,143.22,243.31,143.66Z"/><path d="M236.19,145.06c.74.53.74.34.11.84C235.69,145.31,235.76,145.53,236.19,145.06Z"/><path d="M160,11.81c.52.49.49.29.12.76C159.61,12.17,159.71,12.34,160,11.81Z"/><path d="M33.66,138.06c-.52-.36-.55-.17-.18-.72C34,137.64,34,137.45,33.66,138.06Z"/><path d="M214.65,48.47c.21.84.25.68-.12.77C214.29,48.41,214.22,48.57,214.65,48.47Z"/><path d="M99.39,168.22c1.16-.28.94-.33,1.1.06C99.34,168.7,99.57,168.74,99.39,168.22Z"/><path d="M171.48,75.26l-.37-.36a2.66,2.66,0,0,1,.56-.33c.05,0,.3.24.27.34S171.68,75.12,171.48,75.26Z"/><path d="M197.11,154.38c1-.54.81-.55,1-.16C197,154.38,197.07,154.34,197.11,154.38Z"/><path d="M228.28-16.06l1,.11c0,.1-.07.3-.1.3C228-15.66,228.22-15.69,228.28-16.06Z"/><path d="M101.88,67.5c-.17-.53-.38-.36.79-.77C102.9,67.28,103.05,67.1,101.88,67.5Z"/><path d="M9.17,99.26c-1.29.57-1,.57-1.28.12C9.17,98.79,8.91,98.8,9.17,99.26Z"/><path d="M80.84,28.45a5.25,5.25,0,0,1,.66.56s-.28.36-.31.34C80.21,28.94,80.52,28.93,80.84,28.45Z"/><path d="M174.14,162.34c-.19.2-.28.37-.44.45s-.38-.15-.37-.24a.53.53,0,0,1,.29-.41C173.71,162.09,173.92,162.25,174.14,162.34Z"/><path d="M81.13,177.51l.9.08c0,.1-.07.29-.11.29C80.89,177.9,81.07,177.83,81.13,177.51Z"/><path d="M102.14,83.18c.63.35.63.11.25.85C101.82,83.58,101.94,83.78,102.14,83.18Z"/><path d="M66.47,88.27c.18.26.42.46.37.54a.9.9,0,0,1-.55.38c-.14,0-.45-.26-.42-.36S66.17,88.53,66.47,88.27Z"/><path d="M231,7.49c-.65.36-.44.33-.75-.08C230.92,7.12,230.72,7.12,231,7.49Z"/><path d="M85.6,178.14c.44.38.63.5.72.67s-.27.34-.33.32C85.13,178.91,85.48,178.57,85.6,178.14Z"/><path d="M76.7,86.49l1.14-.07c-.09.34-.16.6-.31,1.19C76.64,86.33,76.74,86.44,76.7,86.49Z"/><path d="M188.86,163.31c-.21.52,0,.45-.86.21C188.17,163.16,188,163.21,188.86,163.31Z"/><path d="M141.55,23.27c.5.34.54.15.13.72C141,23.6,141.06,23.77,141.55,23.27Z"/><path d="M287.76,103c-.91.61-.58.59-1.29.3C287.15,102.74,286.84,102.87,287.76,103Z"/><path d="M61.29,86.71c-.57.55-.27.54-1.12.25C60.5,86.49,60.18,86.51,61.29,86.71Z"/><path d="M71.6,105.89c.5,1,.48.64,0,1.26C70.84,106.65,70.92,107,71.6,105.89Z"/><path d="M96,134.75c-.56.38-.37.33-.7.1C95.79,134.41,95.62,134.46,96,134.75Z"/></g></mask></defs><g id="Layer_2" data-name="Layer 2"><g id="Layer_1-2" data-name="Layer 1"><g class="cls-3"><path d="M231.3,139.12A98.55,98.55,0,0,1,47.45,167.83l-3.05.48a101.46,101.46,0,0,0,189.94-29.66Zm-112.59-118a101.63,101.63,0,0,0-84.33,83l3-.48a98.55,98.55,0,0,1,183.84-28.7l3-.48A101.62,101.62,0,0,0,118.71,21.14Z"/><path d="M238.22,62.71a7.76,7.76,0,0,1-5.41-8.66A7.73,7.73,0,0,0,226,45.11a7.74,7.74,0,0,1-6.87-7.54A7.74,7.74,0,0,0,210.91,30a7.7,7.7,0,0,1-5.22-1.57,7.8,7.8,0,0,1-2.9-4.63,7.72,7.72,0,0,0-9.47-6,7.78,7.78,0,0,1-9.1-4.66,7.73,7.73,0,0,0-10.39-4.2,7.75,7.75,0,0,1-9.77-3,7.75,7.75,0,0,0-11-2.27,7.74,7.74,0,0,1-10.14-1.17,7.75,7.75,0,0,0-11.22-.27,7.72,7.72,0,0,1-10.18.66,7.74,7.74,0,0,0-11.08,1.73,7.74,7.74,0,0,1-9.91,2.48A7.73,7.73,0,0,0,90,10.81,7.76,7.76,0,0,1,80.65,15a7.75,7.75,0,0,0-9.77,5.5,7.7,7.7,0,0,1-8.39,5.8,7.75,7.75,0,0,0-8.63,7.17,7.75,7.75,0,0,1-7.24,7.21,7.73,7.73,0,0,0-7.2,8.59,7.75,7.75,0,0,1-5.83,8.38A7.74,7.74,0,0,0,28,67.41a7.74,7.74,0,0,1-4.26,9.28A7.75,7.75,0,0,0,19.31,85a7.25,7.25,0,0,0,.75,2.32,7.72,7.72,0,0,1-2.52,9.89,7.75,7.75,0,0,0-2.47,10l14.71-2.3A105.88,105.88,0,0,1,228.9,73.74l14.71-2.29A7.71,7.71,0,0,0,238.22,62.71ZM252.6,135.8l-13.66,2.13A105.9,105.9,0,0,1,39.8,169l-13.7,2.14a7.71,7.71,0,0,1,4.21,8.91,7.76,7.76,0,0,0,5.95,9.52,7.75,7.75,0,0,1,6.17,8.13A7.75,7.75,0,0,0,50,206a7.72,7.72,0,0,1,7.51,6.9c0,.12,0,.25,0,.36a7.75,7.75,0,0,0,8.87,6.45A7.77,7.77,0,0,1,75,225.19a7.74,7.74,0,0,0,10,5.11,7.76,7.76,0,0,1,9.47,3.83,7.74,7.74,0,0,0,10.73,3.24,7.75,7.75,0,0,1,10,2.07,7.74,7.74,0,0,0,11.14,1.27,7.74,7.74,0,0,1,10.21.27,7.74,7.74,0,0,0,11.19-.74,7.75,7.75,0,0,1,10.08-1.57A7.74,7.74,0,0,0,168.71,236a7.75,7.75,0,0,1,9.64-3.37A7.74,7.74,0,0,0,188.58,228a7.74,7.74,0,0,1,8.9-5,7.76,7.76,0,0,0,9.23-6.36,7.73,7.73,0,0,1,7.85-6.53,7.75,7.75,0,0,0,7.94-7.92,7.8,7.8,0,0,1,6.55-7.83,7.72,7.72,0,0,0,6.41-9.2c0-.11-.05-.23-.07-.34a7.76,7.76,0,0,1,5.14-8.52,7.77,7.77,0,0,0,4.66-10.21,7.72,7.72,0,0,1,3.39-9.62,7.76,7.76,0,0,0,2.76-10.88A7.75,7.75,0,0,1,252.6,135.8Z"/><path d="M189.84,145.6A60.53,60.53,0,0,1,88.89,161.36l-3.39.53a63.43,63.43,0,0,0,107.73-16.82ZM124.57,58.65A63.47,63.47,0,0,0,75.48,97.7l3.39-.53A60.52,60.52,0,0,1,179.82,81.41l3.39-.53A63.46,63.46,0,0,0,124.57,58.65Z"/><path d="M94,160.64a56.29,56.29,0,0,0,90.75-14.17Z"/><path d="M174.77,82.2,83.92,96.38A56.29,56.29,0,0,1,174.77,82.2Z"/><rect x="-1.35" y="93.62" width="263.21" height="2.94" transform="translate(-13.11 21.23) rotate(-8.87)"/><rect x="6.86" y="146.21" width="263.21" height="2.94" transform="matrix(0.99, -0.15, 0.15, 0.99, -21.12, 23.13)"/><path d="M46.32,135.71a18.19,18.19,0,0,1-.85,9.25,16.62,16.62,0,0,1-5.18,7.24A17.31,17.31,0,0,1,32,155.83a17.16,17.16,0,0,1-9-.92,16.44,16.44,0,0,1-7.14-5.31,18,18,0,0,1-3.64-8.55,19.26,19.26,0,0,1,.78-9.77A15.33,15.33,0,0,1,18,124.21a18.44,18.44,0,0,1,8.48-3.46,18.31,18.31,0,0,1,9.05.73,15.35,15.35,0,0,1,7,5.17A19.29,19.29,0,0,1,46.32,135.71ZM30.81,148.57a3.85,3.85,0,0,0,1.42-.49,3.23,3.23,0,0,0,1-.93,4.76,4.76,0,0,0,.6-1.24,6.57,6.57,0,0,0,.31-1.49c0-.53.06-1.07.06-1.63a13.32,13.32,0,0,0-.1-1.66c-.06-.55-.13-1.09-.2-1.62s-.14-1-.23-1.5c0-.28-.08-.49-.1-.63s-.06-.39-.11-.73c-.1-.5-.18-1-.25-1.58a13.6,13.6,0,0,0-.34-1.71c-.16-.58-.32-1.14-.5-1.68a6.63,6.63,0,0,0-.72-1.52,6.55,6.55,0,0,0-1-1.19,3.11,3.11,0,0,0-1.32-.7,4.17,4.17,0,0,0-1.7-.07,4.38,4.38,0,0,0-1.43.48,3.08,3.08,0,0,0-1,.87,5,5,0,0,0-.62,1.17,4.81,4.81,0,0,0-.32,1.37c-.05.49-.08,1-.09,1.51a11.42,11.42,0,0,0,.08,1.55q.11.76.18,1.5c.06.49.14.94.23,1.37s.09.58.11.73.06.35.1.63.15.85.21,1.31a12.86,12.86,0,0,0,.25,1.42c.11.49.23,1,.35,1.45a10,10,0,0,0,.44,1.41c.18.45.37.88.57,1.28a6.25,6.25,0,0,0,.72,1.07,4.55,4.55,0,0,0,.91.8,3.07,3.07,0,0,0,1.13.44A3.76,3.76,0,0,0,30.81,148.57Z"/><path d="M67.5,149.66l-16.88,2.66-1.17-7.51,3.21-.5-3-19-3.23.5-1.15-7.36,21.16-3.3a18.57,18.57,0,0,1,4.62-.21,10.17,10.17,0,0,1,3.71,1,7,7,0,0,1,2.72,2.59A11.71,11.71,0,0,1,79,122.88a6.81,6.81,0,0,1-1.18,5.27,10.5,10.5,0,0,1-5.13,3.47,9.52,9.52,0,0,1,4.75,1.28,4.31,4.31,0,0,1,1.84,3l.3,1.94a3.82,3.82,0,0,0,.24,1,1.53,1.53,0,0,0,.54.61,2,2,0,0,0,1.1.3,11.35,11.35,0,0,0,1.89-.16L84.49,147l-5.46.85-1.28.19-1.26.14a7.66,7.66,0,0,1-1.28.06,11.71,11.71,0,0,1-1.18-.1,4.31,4.31,0,0,1-1.14-.28,6.44,6.44,0,0,1-1-.54,2.86,2.86,0,0,1-.84-.82,6.35,6.35,0,0,1-.61-1.17,6.88,6.88,0,0,1-.41-1.55l-.64-4.06a14.21,14.21,0,0,0-.45-2,5.22,5.22,0,0,0-.77-1.48,2.38,2.38,0,0,0-1.35-.91,5.16,5.16,0,0,0-2.1,0l-2,.32,1.09,7,2.52-.4Zm-4.37-19a9.6,9.6,0,0,0,1.9-.47,5.9,5.9,0,0,0,1.55-.82,2.82,2.82,0,0,0,1-1.33,3.89,3.89,0,0,0-1.3-4.33,4.16,4.16,0,0,0-3.07-.54l-2.52.39,1.14,7.3Z"/><path d="M100.44,117.39l-3.07.48,3,19,2.94-.45,1.17,7.48-18,2.81-1.17-7.49,3.07-.48-3-19-3,.46-1.15-7.36,18-2.81Z"/><path d="M132,137.43c-1.73,2.12-4.34,3.46-7.81,4a22.07,22.07,0,0,1-5.83.16,17.19,17.19,0,0,1-5.24-1.4,16,16,0,0,1-4.35-2.88,15,15,0,0,1-3.24-4.39,19.5,19.5,0,0,1-1.82-5.83,21.73,21.73,0,0,1,0-7.11,17.68,17.68,0,0,1,2.27-6.19,14.48,14.48,0,0,1,4.68-4.7,17.86,17.86,0,0,1,7-2.54,11.81,11.81,0,0,1,7.24.81l.72-1.44,6.57-1,2.2,14.13-6,.94a20.2,20.2,0,0,0-.69-2.11,10.27,10.27,0,0,0-.9-1.78,5.05,5.05,0,0,0-1.26-1.42,4.62,4.62,0,0,0-1.74-.73,6.39,6.39,0,0,0-2.36,0,6.72,6.72,0,0,0-2.51.88,4.47,4.47,0,0,0-1.63,1.63,9,9,0,0,0-.88,2.07,9.52,9.52,0,0,0-.34,2.44c0,.91,0,1.73.07,2.47s.16,1.54.29,2.42q1.44,9.19,8,8.17a4.63,4.63,0,0,0,2.64-1.32,2.87,2.87,0,0,0,.81-2.59,6.41,6.41,0,0,0-.43-1.67l-3.34.5-1-6.33,13-2,2.81,18-5.75.9Z"/><path d="M156.18,108.69l-3.06.48,3,19,2.93-.46,1.17,7.49-18,2.8-1.17-7.48,3.07-.48-3-19-3,.47L137,104.14l18-2.81Z"/><path d="M195.19,102.6a3.36,3.36,0,0,0-2.4,1.21,3.32,3.32,0,0,0-.4,2.47L196,129.59l-12.63,2-12.82-17.39,1.3,8.36a3.17,3.17,0,0,0,1.14,2.28,3.76,3.76,0,0,0,2.64.29l1.17,7.49-13.28,2.07-1.17-7.48a5,5,0,0,0,1.58-.48,3.11,3.11,0,0,0,.92-.7,2.12,2.12,0,0,0,.38-1,6.06,6.06,0,0,0,.05-1.09q0-.47-.15-1.26l-2.35-15-3.28.51-1.14-7.32,15.32-2.39,13.52,18.74-1.52-9.78c-.06-.34-.1-.59-.13-.75a6,6,0,0,0-.2-.71,1.63,1.63,0,0,0-.39-.68,3.41,3.41,0,0,0-.64-.46,2.09,2.09,0,0,0-1-.24,7.9,7.9,0,0,0-1.43.14l-1.15-7.36,13.29-2Z"/><path d="M228.93,114.91c.18.41.33.72.44.93a1.77,1.77,0,0,0,.44.54.71.71,0,0,0,.58.18l1.79-.28,1.17,7.48-17.22,2.69L214.94,119l2.5-.39c-.35-2.28-1-3.35-1.93-3.2l-5.73.89a.5.5,0,0,0-.39.29,1,1,0,0,0-.09.47c0,.16,0,.38.06.68a4.59,4.59,0,0,0,.44,1.29c.23.48.49.7.78.65l1.75-.27,1.17,7.48-14.13,2.21-1.17-7.49a6.77,6.77,0,0,0,1.6-.42,3.27,3.27,0,0,0,2-2.34,21.74,21.74,0,0,0,.37-2.81l1.38-14.72-4.42.69L198,94.62l20.73-3.23Zm-14.63-4.68L210.21,100l-.69,11Z"/><path d="M248.44,113.74l4-.62.68-7.58,6-.93,2.31,14.78-26.54,4.14-1.19-7.48,3-.46-3-19-3.06.48-1.15-7.34,18.1-2.82,1.15,7.33-3.21.51Z"/><path d="M80.29,70.17a8.22,8.22,0,0,1-4.07-2.67L72,63a7.91,7.91,0,0,1-2.37-4.32c-.14-1.35.5-2.7,2-4.05s2.69-1.88,3.91-1.76A5.94,5.94,0,0,1,79.11,55l.73.78-2.66,2.49-.89-1a4.58,4.58,0,0,0-1.49-1.17c-.41-.17-.86,0-1.35.43A1.29,1.29,0,0,0,73,58a5.44,5.44,0,0,0,1.14,1.65l5.6,6a4.34,4.34,0,0,0,1.63,1.21,1.67,1.67,0,0,0,2-1.91,4.42,4.42,0,0,0-1.11-1.78l-1.34-1.43-1.32,1.23L78,61.25l3.79-3.55,6.48,6.93-1.8,1.68-1.3-1a3.05,3.05,0,0,1-.91,3.47A4.34,4.34,0,0,1,80.29,70.17Z"/><path d="M91.14,62a3.79,3.79,0,0,1-2.48-.79,10,10,0,0,1-2.25-2.55l-7-10.54,3.08-2,7.24,11a5.31,5.31,0,0,0,1.41,1.55,1.27,1.27,0,0,0,1.52-.1,1.3,1.3,0,0,0,.69-1.35,5.42,5.42,0,0,0-.88-1.91l-7.24-11,3.11-2,7,10.55a10.1,10.1,0,0,1,1.45,3.08,3.72,3.72,0,0,1-.27,2.59A7.79,7.79,0,0,1,91.14,62Z"/><path d="M95.07,38.89l3.81-1.7L109.65,52.6,106.48,54l-2.27-3.42-2.67,1.19,1,4-3.23,1.44Zm7.86,9.72-4.05-6.33,2,7.23Z"/><path d="M106.14,34.37l4.63-1.2a7.58,7.58,0,0,1,4.62-.08,4.37,4.37,0,0,1,2.41,3.29,7,7,0,0,1,.25,2.94,3.39,3.39,0,0,1-1.3,2.07l4.74,8.07-3.73,1-4.13-7.57-1.33.34,2.11,8.1-3.62.94Zm6.68,6.39a2.27,2.27,0,0,0,1.63-1.1,3.18,3.18,0,0,0,0-2.11,3.34,3.34,0,0,0-1-1.82,2.05,2.05,0,0,0-1.84-.18l-1.25.33L111.74,41Z"/><path d="M124,30.64l4.15-.38,5.24,18.06-3.45.31-1.06-4-2.9.26L125.67,49l-3.52.32Zm4.31,11.73-1.8-7.29-.4,7.5Z"/><path d="M135.9,29.94l2.61.18L142,40l.66-9.57,3.11.21L144.46,49l-2.52-.17-3.4-10.47-.7,10.19-3.2-.22Z"/><path d="M151.63,34.48l-2.79-.61.6-2.71,9.22,2-.59,2.72-2.74-.6L152,50.61l-3.7-.81Z"/><path d="M162,34.21l7.57,2.71-.87,2.45-4.06-1.45L163,42.53l3.13,1.12-.88,2.47L162.12,45l-2,5.45,4.1,1.47-.86,2.4-7.62-2.73Z"/><path d="M173.06,38.48l7.17,3.67L179,44.46l-3.83-2L173,46.86l3,1.52-1.2,2.33-3-1.51-2.64,5.15,3.88,2-1.17,2.28-7.2-3.69Z"/><path d="M92.79,199.37a8.22,8.22,0,0,1,1.06-4.75l2.75-5.53a7.88,7.88,0,0,1,3.21-3.74q1.81-.91,4.47.4c1.7.84,2.71,1.86,3,3a5.91,5.91,0,0,1-.7,4.13l-.47,1-3.27-1.62.57-1.17a4.6,4.6,0,0,0,.58-1.81c0-.44-.28-.82-.88-1.11a1.27,1.27,0,0,0-1.49,0,5.23,5.23,0,0,0-1.15,1.65l-3.64,7.35a4.51,4.51,0,0,0-.56,2,1.39,1.39,0,0,0,.92,1.23,1.43,1.43,0,0,0,1.56,0,4.33,4.33,0,0,0,1.28-1.67l.87-1.76-1.62-.8,1-2,4.65,2.31-4.21,8.49-2.2-1.09.5-1.58a3,3,0,0,1-3.57.37A4.34,4.34,0,0,1,92.79,199.37Z"/><path d="M106.91,206.61a3.78,3.78,0,0,1-1-2.4,10.14,10.14,0,0,1,.5-3.37l3.6-12.1,3.54,1L109.8,202.4a5.42,5.42,0,0,0-.28,2.07,1.54,1.54,0,0,0,2.53.76,5.34,5.34,0,0,0,.9-1.9l3.75-12.6,3.56,1.05-3.6,12.11a9.91,9.91,0,0,1-1.42,3.09,3.75,3.75,0,0,1-2.16,1.47,6.36,6.36,0,0,1-3.29-.26A6.22,6.22,0,0,1,106.91,206.61Z"/><path d="M124.11,192.32l4.14.51,1.25,18.76-3.44-.43-.18-4.11-2.89-.36-1.21,3.94-3.5-.44Zm1.7,12.38-.19-7.51-2,7.24Z"/><path d="M132.39,193.26l4.78-.2a7.53,7.53,0,0,1,4.53.9c1,.68,1.59,1.92,1.67,3.71a7,7,0,0,1-.38,2.93,3.36,3.36,0,0,1-1.7,1.75l2.94,8.88-3.85.17-2.46-8.27-1.36.06.36,8.36-3.74.16Zm5.19,7.65a2.26,2.26,0,0,0,1.82-.73,3.16,3.16,0,0,0,.45-2.06,3.41,3.41,0,0,0-.56-2,2.08,2.08,0,0,0-1.76-.57l-1.3.06.23,5.33Z"/><path d="M147,192l4.08-.86,7.28,17.33-3.39.72-1.51-3.83-2.85.6.14,4.11-3.46.73Zm5.63,11.16L150,196.14l.46,7.5Z"/><path d="M155.17,190.2l2.44-.94,7.29,7.47-3.46-8.95,2.91-1.13L171,203.87l-2.36.92-7.51-8,3.68,9.53-3,1.15Z"/><path d="M168.69,187.42l-2.48,1.4-1.37-2.41,8.2-4.67,1.37,2.42L172,185.54l7.75,13.63-3.29,1.88Z"/><path d="M173.55,181.31l6.42-4.86,1.57,2.08-3.44,2.6,3,3.9,2.65-2,1.59,2.09-2.66,2,3.5,4.62,3.47-2.63,1.54,2L184.7,196Z"/><path d="M180.66,175.78l5.73-5.65,1.83,1.85-3.07,3,3.44,3.49,2.37-2.34L192.8,178l-2.37,2.34,4.07,4.12,3.1-3.06,1.79,1.82-5.76,5.68Z"/></g></g></g></svg>